<svg width="16" height="16" viewBox="0 0 16 16" fill="none" xmlns="http://www.w3.org/2000/svg">
<path d="M14.8356 4.08312C14.5699 3.81871 14.2104 3.67026 13.8356 3.67026C13.4608 3.67026 13.1012 3.81871 12.8356 4.08312L8.00058 8.91312L3.16808 4.08312C3.03843 3.94452 2.88221 3.83342 2.70874 3.75642C2.53527 3.67943 2.34808 3.63813 2.15831 3.63496C1.96855 3.6318 1.78009 3.66684 1.60414 3.73801C1.4282 3.80917 1.26837 3.91501 1.13417 4.04921C0.999968 4.18341 0.894135 4.34324 0.822969 4.51918C0.751803 4.69513 0.716759 4.88359 0.719923 5.07335C0.723087 5.26312 0.764394 5.45031 0.841385 5.62378C0.918377 5.79725 1.02948 5.95347 1.16808 6.08312L7.00058 11.9181C7.26622 12.1825 7.62577 12.331 8.00058 12.331C8.37539 12.331 8.73494 12.1825 9.00058 11.9181L14.8356 6.08562C15.1008 5.81988 15.2497 5.45979 15.2497 5.08437C15.2497 4.70895 15.1008 4.34886 14.8356 4.08312Z" fill="white"/>
</svg>
