<svg width="200" height="200" viewBox="0 0 200 200" fill="none" xmlns="http://www.w3.org/2000/svg">
<rect x="1" y="1" width="198" height="198" rx="19" fill="#EDF6FC" stroke="#D4E1E9" stroke-width="2"/>
<g clip-path="url(#clip0_1014_7455)">
<path d="M100.729 70.8333H97.5212C96.5587 67.4792 93.467 65 89.792 65C86.117 65 83.0253 67.4792 82.0628 70.8333H78.8545C77.6587 70.8333 76.667 71.825 76.667 73.0208V77.3958C76.667 80.1958 78.9712 82.5 81.7712 82.5H97.8128C100.613 82.5 102.917 80.1958 102.917 77.3958V73.0208C102.917 71.825 101.925 70.8333 100.729 70.8333Z" fill="#9FAEB9"/>
<path d="M106.563 73.75H105.833V77.3958C105.833 81.8292 102.246 85.4167 97.8125 85.4167H81.7708C77.3375 85.4167 73.75 81.8292 73.75 77.3958V73.75H73.0208C68.5875 73.75 65 77.3375 65 81.7708V118.229C65 122.663 68.5875 126.25 73.0208 126.25H92.2417C90.7833 123.129 89.9083 119.688 89.8208 116.042H75.9375C74.7417 116.042 73.75 115.05 73.75 113.854C73.75 112.658 74.7417 111.667 75.9375 111.667H90.0542C90.3167 109.888 90.7542 108.196 91.3375 106.562H75.9375C74.7417 106.562 73.75 105.571 73.75 104.375C73.75 103.179 74.7417 102.188 75.9375 102.188H93.4375C94.575 100.321 95.9167 98.6 97.4917 97.0833H75.9375C74.7417 97.0833 73.75 96.0917 73.75 94.8958C73.75 93.7 74.7417 92.7083 75.9375 92.7083H103.471C106.825 90.9583 110.588 89.9083 114.583 89.8208V81.7708C114.583 77.3375 110.996 73.75 106.563 73.75Z" fill="#9FAEB9"/>
<path d="M115.312 95.625C104.457 95.625 95.625 104.457 95.625 115.312C95.625 126.168 104.457 135 115.312 135C126.168 135 135 126.168 135 115.312C135 104.457 126.168 95.625 115.312 95.625ZM118.229 123.333C118.229 124.943 116.925 126.25 115.312 126.25C113.7 126.25 112.396 124.943 112.396 123.333V113.125C112.396 111.515 113.7 110.208 115.312 110.208C116.925 110.208 118.229 111.515 118.229 113.125V123.333ZM115.312 108.75C113.703 108.75 112.396 107.443 112.396 105.833C112.396 104.223 113.703 102.917 115.312 102.917C116.923 102.917 118.229 104.223 118.229 105.833C118.229 107.443 116.923 108.75 115.312 108.75Z" fill="#9FAEB9"/>
</g>
<defs>
<clipPath id="clip0_1014_7455">
<rect width="70" height="70" fill="white" transform="translate(65 65)"/>
</clipPath>
</defs>
</svg>
