<svg width="70" height="70" viewBox="0 0 70 70" fill="none" xmlns="http://www.w3.org/2000/svg">
<path d="M24.0499 46.0465L24.9311 45.0563C24.2873 42.9986 24.2855 40.7333 24.9733 38.6415C19.9085 41.4241 13.4964 40.3153 9.66872 35.788C6.82577 38.0427 5 41.5266 5 45.4289V63.0069C5 63.9773 5.7875 64.7647 6.7578 64.7647H21.2397C21.044 64.2151 20.9374 63.6234 20.9374 63.0069V54.2179C20.9374 51.2039 22.0425 48.3012 24.0499 46.0465Z" fill="#AAA9DB"/>
<path d="M19.0624 36.6399C23.9165 36.6399 27.8515 32.705 27.8515 27.8509C27.8515 22.9969 23.9165 19.0619 19.0624 19.0619C14.2084 19.0619 10.2734 22.9969 10.2734 27.8509C10.2734 32.705 14.2084 36.6399 19.0624 36.6399Z" fill="#AAA9DB"/>
<path d="M60.3319 35.788C56.4973 40.3235 50.0808 41.4201 45.0273 38.6403C45.7141 40.7363 45.7142 42.9958 45.0695 45.0563L45.9508 46.0465C47.9582 48.3012 49.0633 51.2039 49.0633 54.2179V63.0069C49.0633 63.6234 48.9566 64.2151 48.7609 64.7647H63.2429C64.2132 64.7647 65.0007 63.9773 65.0007 63.0069V45.4289C65.0007 41.5266 63.1749 38.0427 60.3319 35.788Z" fill="#AAA9DB"/>
<path d="M50.9374 36.6399C55.7915 36.6399 59.7265 32.705 59.7265 27.8509C59.7265 22.9969 55.7915 19.0619 50.9374 19.0619C46.0834 19.0619 42.1484 22.9969 42.1484 27.8509C42.1484 32.705 46.0834 36.6399 50.9374 36.6399Z" fill="#AAA9DB"/>
<path d="M34.9999 52.4601C31.6203 52.4601 28.6074 50.8629 26.6762 48.3832C25.2934 49.9371 24.4531 51.9809 24.4531 54.218V63.007C24.4531 63.9773 25.2406 64.7648 26.2109 64.7648H43.7889C44.7593 64.7648 45.5467 63.9773 45.5467 63.007V54.218C45.5467 51.9809 44.7065 49.9371 43.3237 48.3832C41.3925 50.8629 38.3796 52.4601 34.9999 52.4601Z" fill="#AAA9DB"/>
<path d="M35 48.9445C38.8832 48.9445 42.0312 45.7966 42.0312 41.9133C42.0312 38.0301 38.8832 34.8821 35 34.8821C31.1167 34.8821 27.9688 38.0301 27.9688 41.9133C27.9688 45.7966 31.1167 48.9445 35 48.9445Z" fill="#AAA9DB"/>
<path d="M29.9983 19.1784C32.0052 21.0332 33.9947 22.2651 34.0784 22.3167C34.6436 22.6645 35.3562 22.6645 35.9214 22.3167C36.0052 22.2651 37.9945 21.0332 40.0015 19.1784C42.9035 16.4965 44.3749 13.8892 44.3749 11.4291C44.3749 5.84208 38.8191 3.21956 34.9999 6.32325C31.1723 3.21264 25.625 5.85684 25.625 11.4291C25.625 13.8892 27.0964 16.4965 29.9983 19.1784Z" fill="#AAA9DB"/>
</svg>
