<svg width="40" height="40" viewBox="0 0 40 40" fill="none" xmlns="http://www.w3.org/2000/svg">
<path d="M21.1594 6.48626L36.3557 15.3163C36.9469 15.66 36.9469 16.5125 36.3557 16.8563L21.1594 25.6863C20.2257 26.2288 19.0732 26.2288 18.1407 25.6863L2.94441 16.8563C2.35316 16.5125 2.35316 15.66 2.94441 15.3163L18.1407 6.48626C19.0732 5.94501 20.2257 5.94501 21.1594 6.48626Z" fill="#AAA9DB"/>
<path d="M21.1594 6.48626L36.3557 15.3163C36.9469 15.66 36.9469 16.5125 36.3557 16.8563L21.1594 25.6863C20.2257 26.2288 19.0732 26.2288 18.1407 25.6863L2.94441 16.8563C2.35316 16.5125 2.35316 15.66 2.94441 15.3163L18.1407 6.48626C19.0732 5.94501 20.2257 5.94501 21.1594 6.48626Z" fill="#AAA9DB"/>
<path d="M36.3502 16.8625L31.1877 19.8625L21.1627 25.6875C20.2252 26.225 19.0752 26.225 18.1377 25.6875L8.1127 19.8625L2.9377 16.8625C2.3502 16.5125 2.3502 15.6625 2.9377 15.3125L18.1377 6.48748C19.0752 5.94998 20.2252 5.94998 21.1627 6.48748L36.3502 15.3125C36.9502 15.6625 36.9502 16.5125 36.3502 16.8625Z" fill="#AAA9DB"/>
<path d="M22.1048 27.3088C21.3511 27.74 20.5061 27.9662 19.6498 27.9662C18.7936 27.9662 17.9486 27.74 17.2048 27.315L8.1123 22.0312V26.725C8.1123 27.775 8.6623 28.7375 9.5748 29.2625L15.9123 32.925C18.2248 34.25 21.0748 34.25 23.3748 32.925L29.7248 29.2625C30.6248 28.7375 31.1873 27.775 31.1873 26.725V22.0312L22.1048 27.3088Z" fill="#AAA9DB"/>
<path d="M36.6255 28.3837V18.8712L34.3743 20.1787V28.3825C33.8455 28.7425 33.498 29.3487 33.498 30.0362C33.498 31.1412 34.3943 32.0375 35.4993 32.0375C36.6043 32.0375 37.5005 31.1425 37.5005 30.0375C37.5005 29.35 37.153 28.745 36.6255 28.3837Z" fill="#AAA9DB"/>
</svg>
