<svg width="70" height="70" viewBox="0 0 70 70" fill="none" xmlns="http://www.w3.org/2000/svg">
<g clip-path="url(#clip0_1002_6535)">
<path d="M52.3921 6.71767L36.9375 19.9295H34.4349C33.691 20.2143 32.8847 20.3717 32.0421 20.3717C31.1559 20.3717 30.3079 20.1966 29.5298 19.8809C29.4914 19.8654 29.4528 19.8504 29.4149 19.8342C27.0218 18.8115 25.3258 16.4368 25.3258 13.6552C25.3258 13.1648 25.38 12.6868 25.4804 12.226L19.8922 1.33604C19.2728 0.128428 17.7911 -0.34805 16.5841 0.27155C15.3766 0.891151 14.9 2.37237 15.5196 3.57984L25.4075 22.8491V23.144L22.2546 47.7451C22.1097 48.5816 22.7571 49.345 23.5997 49.345H25.5078V67.0503C25.5078 68.6789 26.828 69.9992 28.4566 69.9992C30.0852 69.9992 31.4055 68.6789 31.4055 67.0503V49.3451H34.8858L42.7731 68.189C43.4048 69.6981 45.1361 70.3968 46.6319 69.7706C48.1342 69.1418 48.8423 67.4142 48.2136 65.9118L41.2795 49.3451H42.8427C43.688 49.3451 44.333 48.5828 44.1878 47.7452L38.6522 24.9806L55.5857 10.4534C56.6173 9.57146 56.7386 8.02033 55.8568 6.98867C54.9751 5.95715 53.4237 5.83573 52.3921 6.71767Z" fill="#8AC6E8"/>
<path d="M32.0423 18.7483C34.8551 18.7483 37.1353 16.4681 37.1353 13.6552C37.1353 10.8424 34.8551 8.56219 32.0423 8.56219C29.2295 8.56219 26.9492 10.8424 26.9492 13.6552C26.9492 16.4681 29.2295 18.7483 32.0423 18.7483Z" fill="#8AC6E8"/>
<path d="M40.7343 10.5968C41.6207 10.5968 42.7401 10.1418 42.5806 9.36007V3.47655L47.0006 1.92954V6.67125C46.1216 6.60065 44.8866 6.96601 44.8866 7.76307C44.8866 8.37237 45.72 8.86629 46.7479 8.86629C47.7759 8.86629 48.6092 8.37237 48.6092 7.76307H48.6375V0.924252C48.6375 0.288169 48.0094 -0.157542 47.4089 0.0526086L41.6001 2.08571C41.207 2.2232 40.9438 2.59419 40.9438 3.01065V8.39791C40.0826 8.3405 38.873 8.70696 38.873 9.49372C38.873 10.1029 39.7064 10.5968 40.7343 10.5968Z" fill="#8AC6E8"/>
<path d="M59.4662 23.1572V29.2398C58.6052 29.1823 57.3955 29.5488 57.3955 30.3356C57.3955 30.9449 58.2288 31.4388 59.2568 31.4388C60.1431 31.4388 61.2625 30.9837 61.1031 30.202V24.3184L62.3865 23.8692C63.2397 23.5706 63.6893 22.6368 63.3906 21.7837L59.4662 23.1572Z" fill="#8AC6E8"/>
<path d="M5.54242 12.884V18.9664C4.68121 18.9093 3.47168 19.2755 3.47168 20.0622C3.47168 20.6715 4.305 21.1654 5.33295 21.1654C6.21929 21.1654 7.33858 20.7104 7.17926 19.9287V14.0452L8.46268 13.596C9.31592 13.2974 9.76548 12.3637 9.46687 11.5105L5.54242 12.884Z" fill="#8AC6E8"/>
<path d="M59.9387 3.50416C60.437 3.77584 60.8469 4.18571 61.1185 4.68402C61.2238 4.87701 61.5026 4.87701 61.6078 4.68402C61.8795 4.18584 62.2893 3.77584 62.7877 3.50416C62.9806 3.39895 62.9806 3.12012 62.7877 3.01491C62.2893 2.74336 61.8793 2.33336 61.6078 1.83504C61.5026 1.64206 61.2238 1.64206 61.1185 1.83504C60.8469 2.33322 60.437 2.74336 59.9387 3.01491C59.7457 3.11998 59.7457 3.39895 59.9387 3.50416Z" fill="#8AC6E8"/>
<path d="M3.85096 11.2263C4.12251 10.728 4.53251 10.318 5.03083 10.0464C5.22381 9.94121 5.22381 9.66239 5.03083 9.55717C4.53251 9.28549 4.12251 8.87563 3.85096 8.37731C3.74575 8.18433 3.46692 8.18433 3.36171 8.37731C3.09002 8.87549 2.68016 9.28549 2.18185 9.55717C1.98886 9.66239 1.98886 9.94121 2.18185 10.0464C2.68016 10.318 3.09016 10.728 3.36171 11.2263C3.46692 11.4193 3.74575 11.4193 3.85096 11.2263Z" fill="#8AC6E8"/>
<path d="M66.032 9.49921C65.6418 9.28659 65.3208 8.96546 65.108 8.57524C65.0256 8.42415 64.8072 8.42415 64.7248 8.57524C64.512 8.96546 64.191 9.28659 63.8008 9.49921C63.6497 9.58162 63.6497 9.80002 63.8008 9.88243C64.191 10.0952 64.512 10.4162 64.7248 10.8064C64.8072 10.9575 65.0256 10.9575 65.108 10.8064C65.3208 10.4162 65.6418 10.0952 66.032 9.88243C66.1831 9.80002 66.1831 9.58162 66.032 9.49921Z" fill="#8AC6E8"/>
<path d="M11.2008 6.13777C10.8106 5.92515 10.4896 5.60402 10.2768 5.2138C10.1944 5.06271 9.97601 5.06271 9.89374 5.2138C9.68098 5.60402 9.35998 5.92515 8.96976 6.13777C8.81867 6.22018 8.81867 6.43857 8.96976 6.52099C9.35998 6.73375 9.68098 7.05474 9.89374 7.44496C9.97615 7.59605 10.1945 7.59605 10.2768 7.44496C10.4896 7.05474 10.8106 6.73375 11.2008 6.52099C11.3519 6.43857 11.3519 6.22018 11.2008 6.13777Z" fill="#8AC6E8"/>
<path d="M67.881 4.16386C67.603 4.01236 67.3743 3.78367 67.2228 3.50567C67.1642 3.39798 67.0085 3.39798 66.9499 3.50567C66.7984 3.78353 66.5697 4.01223 66.2917 4.16386C66.184 4.22251 66.184 4.37813 66.2917 4.43678C66.5696 4.58829 66.7984 4.81698 66.9499 5.09498C67.0085 5.20267 67.1642 5.20267 67.2228 5.09498C67.3743 4.81712 67.603 4.58829 67.881 4.43678C67.9887 4.378 67.9887 4.22251 67.881 4.16386Z" fill="#8AC6E8"/>
<path d="M3.76132 4.27759C4.03933 4.42909 4.26802 4.65779 4.41952 4.93579C4.47817 5.04348 4.63379 5.04348 4.69244 4.93579C4.84394 4.65792 5.07264 4.42923 5.35064 4.27759C5.45832 4.21894 5.45832 4.06332 5.35064 4.00467C5.07264 3.85317 4.84394 3.62448 4.69244 3.34648C4.63379 3.23893 4.47817 3.23893 4.41952 3.34648C4.26802 3.62448 4.03933 3.85317 3.76132 4.00467C3.65378 4.06332 3.65378 4.21894 3.76132 4.27759Z" fill="#8AC6E8"/>
</g>
<defs>
<clipPath id="clip0_1002_6535">
<rect width="70" height="70" fill="white"/>
</clipPath>
</defs>
</svg>
