<svg width="282" height="290" viewBox="0 0 282 290" fill="none" xmlns="http://www.w3.org/2000/svg">
<g clip-path="url(#clip0_1014_1169)">
<path d="M259.825 90.3231C259.825 90.3231 278.077 137.452 252.428 184.921C226.785 232.397 173.947 257.457 131.663 278.897C89.3786 300.337 45.4707 289.895 24.6067 254.78C3.7428 219.664 32.3644 194.597 32.3972 144.522C32.4299 94.4475 24.9014 81.1907 52.0107 38.8867C79.1201 -3.41724 145.666 -12.7788 195.97 18.5989C246.274 49.9766 259.825 90.3231 259.825 90.3231Z" fill="#EDF6FC"/>
<path d="M41.4182 37.0927C41.5426 36.9814 41.6605 36.8701 41.7849 36.7588C75.5455 6.36307 120.383 4.98829 153.05 37.7146C170.078 54.7684 200.31 51.5082 221.94 57.6751C296.519 78.9449 283.622 180.135 246.784 229.051C213.541 273.188 141.509 283.165 93.1166 261.444C50.59 242.36 20.646 199.723 9.98813 155.147C8.92102 150.676 8.03723 146.159 7.36948 141.615C1.76562 103.665 12.5282 63.3641 41.4182 37.0992V37.0927Z" fill="#8AC6E8"/>
<path d="M41.4182 37.0927C41.5426 36.9814 41.6605 36.8701 41.7849 36.7588C75.5455 6.36307 120.383 4.98829 153.05 37.7146C170.078 54.7684 200.31 51.5082 221.94 57.6751C296.519 78.9449 283.622 180.135 246.784 229.051C213.541 273.188 141.509 283.165 93.1166 261.444C50.59 242.36 20.646 199.723 9.98813 155.147C8.92102 150.676 8.03723 146.159 7.36948 141.615C1.76562 103.665 12.5282 63.3641 41.4182 37.0992V37.0927Z" fill="white" fill-opacity="0.65"/>
<path d="M260.585 80.2547C260.585 80.2547 258.549 73.1844 244.821 73.1451C231.093 73.1058 223.047 85.5378 223.047 85.5378C223.047 85.5378 217.292 80.1238 210.333 83.7375C203.381 87.3512 203.401 92.6735 203.401 92.6735L146.249 97.2561L270.483 97.2823" stroke="#263238" stroke-width="0.670276" stroke-linecap="round" stroke-linejoin="round"/>
<path d="M0.809721 127.22C0.809721 127.22 2.8457 120.15 16.5739 120.11C30.302 120.071 38.3478 132.503 38.3478 132.503C38.3478 132.503 44.1022 127.089 51.0612 130.703C58.0137 134.316 57.994 136.366 57.994 136.366H75.8662" stroke="#263238" stroke-width="0.670276" stroke-linecap="round" stroke-linejoin="round"/>
<path d="M281.671 123.789C281.671 123.789 279.635 116.719 265.907 116.68C252.179 116.641 244.133 129.072 244.133 129.072C244.133 129.072 238.378 123.658 231.419 127.272C224.467 130.886 224.487 132.935 224.487 132.935H206.614" stroke="#263238" stroke-width="0.670276" stroke-linecap="round" stroke-linejoin="round"/>
<path d="M274.26 178.342L254.882 177.033C254.882 177.033 257.638 171.783 251.419 165.563C245.2 159.351 238.876 163.495 238.876 163.495C238.876 163.495 232.774 144.588 214.974 146.807C197.174 149.027 195.295 164.568 195.295 164.568C195.295 164.568 191.491 160.752 183.74 163.252C175.989 165.753 174.817 175.357 176.735 179.396C176.735 179.396 167.911 180.948 167.321 187.763C167.321 187.763 166.778 181.733 158.47 181.55C150.163 181.367 148.094 190.689 148.094 190.689H138.772" stroke="#263238" stroke-width="0.670276" stroke-linecap="round" stroke-linejoin="round"/>
<path d="M19.4872 60.3466L46.5114 57.0341C46.5114 57.0341 47.3036 49.296 55.6112 49.6823C55.6112 49.6823 57.4442 42.1734 66.3803 39.9017C75.3164 37.63 79.9775 47.0244 79.9775 47.0244C79.9775 47.0244 84.7107 45.5514 89.3195 48.4515C93.6009 51.1487 91.8923 56.2747 91.8923 56.2747L139.034 61.0013C139.034 61.0013 69.7911 62.579 25.7653 61.106" stroke="#263238" stroke-width="0.670276" stroke-linecap="round" stroke-linejoin="round"/>
<path d="M46.4786 163.54L93.0444 161.445C98.1638 145.956 117.529 152.431 117.529 152.431C124.861 136.365 141.973 144.025 141.973 144.025C141.973 144.025 150.68 128.542 167.852 131.783C185.024 135.023 188.552 148.725 188.552 148.725L200.408 149.177" stroke="#263238" stroke-width="0.670276" stroke-linecap="round" stroke-linejoin="round"/>
<path d="M234.536 151.331L280.421 152.562" stroke="#263238" stroke-width="0.670276" stroke-linecap="round" stroke-linejoin="round"/>
<path d="M26.7926 198.204C29.1755 202.492 31.7418 206.675 34.4979 210.734C35.7417 212.58 37.0248 214.387 38.3342 216.174V216.181C40.6778 219.343 43.1328 222.42 45.6991 225.399C46.5174 226.361 47.3554 227.31 48.2064 228.246C50.1507 230.4 52.154 232.488 54.2162 234.518C54.6024 234.898 54.9821 235.271 55.3684 235.644C66.419 246.289 79.0801 255.146 93.1094 261.437C118.968 273.051 151.59 275.604 181.429 268.724C183.177 268.318 184.919 267.886 186.647 267.414C187.917 267.067 189.18 266.707 190.437 266.328C191.792 265.922 193.141 265.49 194.477 265.038C195.131 264.822 195.786 264.593 196.441 264.364C199.341 263.342 202.202 262.216 204.997 260.999C205.311 260.861 205.619 260.724 205.927 260.586C215.504 256.318 224.407 250.884 232.257 244.285" stroke="#263238" stroke-width="0.670276" stroke-miterlimit="10"/>
<path d="M49.1297 175.167C49.1297 175.167 38.4064 178.794 39.9906 186.983C39.9906 186.983 52.3571 189.281 49.1297 175.167Z" fill="#263238"/>
<path d="M27.9902 182.643C27.9902 182.643 19.7874 175.926 10.9822 182.656C10.9822 182.656 19.5386 191.121 27.9902 182.643Z" fill="#263238"/>
<path d="M6.24344 160.385C6.24344 160.385 8.50201 176.725 21.8701 168.692C21.8701 168.692 14.3219 158.165 6.24344 160.385Z" fill="#263238"/>
<path d="M21.7779 147.042C21.7779 147.042 11.8925 156.109 22.6747 163.343C22.6747 163.343 29.0118 154.623 21.7779 147.042Z" fill="#263238"/>
<path d="M39.4477 157.687C39.4477 157.687 26.6884 159.579 29.6016 171.095C29.6016 171.095 42.1711 168.437 39.4477 157.687Z" fill="#263238"/>
<path d="M39.3428 199.821C39.3428 199.821 41.5294 191.428 33.0188 180.679C24.5083 169.929 20.0828 160.181 21.1106 152.267" stroke="#263238" stroke-width="0.670276" stroke-linecap="round" stroke-linejoin="round"/>
<path d="M36.1406 161.818C36.1406 161.818 29.4304 166.669 28.8346 174.99" stroke="#263238" stroke-width="0.670276" stroke-linecap="round" stroke-linejoin="round"/>
<path d="M11.7876 165.753C11.7876 165.753 17.5813 170.532 24.7236 168.057" stroke="#263238" stroke-width="0.670276" stroke-linecap="round" stroke-linejoin="round"/>
<path d="M16.1803 183.14C16.1803 183.14 28.9854 183.559 33.4502 181.235" stroke="#263238" stroke-width="0.670276" stroke-linecap="round" stroke-linejoin="round"/>
<path d="M46.4785 179.703C46.4785 179.703 42.8583 186.643 37.4639 187.906" stroke="#263238" stroke-width="0.670276" stroke-linecap="round" stroke-linejoin="round"/>
<path d="M21.6924 160.155C21.0508 157.582 20.7693 154.898 21.1097 152.26" stroke="white" stroke-width="0.670276" stroke-linecap="round" stroke-linejoin="round"/>
<path d="M36.1406 161.818C33.5678 163.769 31.4795 166.538 30.2029 169.491" stroke="white" stroke-width="0.670276" stroke-linecap="round" stroke-linejoin="round"/>
<path d="M11.7882 165.753C13.7915 167.317 16.325 168.332 18.8389 168.659" stroke="white" stroke-width="0.670276" stroke-linecap="round" stroke-linejoin="round"/>
<path d="M16.1804 183.14C19.3227 183.232 22.4782 183.16 25.6074 182.898" stroke="white" stroke-width="0.670276" stroke-linecap="round" stroke-linejoin="round"/>
<path d="M46.4785 179.703C45.2609 181.896 43.6766 183.959 41.7977 185.621" stroke="white" stroke-width="0.670276" stroke-linecap="round" stroke-linejoin="round"/>
<path d="M214.398 220.462C214.398 220.462 224.453 225.666 221.652 233.522C221.652 233.522 209.076 233.935 214.398 220.462Z" fill="#263238"/>
<path d="M234.168 231.035C234.168 231.035 243.287 225.627 250.979 233.607C250.979 233.607 241.245 240.691 234.168 231.035Z" fill="#263238"/>
<path d="M259.02 212.299C259.02 212.299 254.326 228.115 242.319 218.158C242.319 218.158 251.367 208.888 259.02 212.299Z" fill="#263238"/>
<path d="M245.671 196.77C245.671 196.77 254.076 207.218 242.332 212.75C242.332 212.75 237.383 203.179 245.671 196.77Z" fill="#263238"/>
<path d="M226.594 204.639C226.594 204.639 238.928 208.43 234.313 219.375C234.313 219.375 222.287 214.858 226.594 204.639Z" fill="#263238"/>
<path d="M220.251 247.303C220.251 247.303 219.465 237.68 229.494 228.331C239.524 218.983 245.363 210.014 245.54 202.033" stroke="#263238" stroke-width="0.670276" stroke-linecap="round" stroke-linejoin="round"/>
<path d="M229.245 209.222C229.245 209.222 235.15 215.022 234.483 223.343" stroke="#263238" stroke-width="0.670276" stroke-linecap="round" stroke-linejoin="round"/>
<path d="M252.729 216.77C252.729 216.77 246.28 220.626 239.596 217.097" stroke="#263238" stroke-width="0.670276" stroke-linecap="round" stroke-linejoin="round"/>
<path d="M245.77 233.306C245.77 233.306 233.043 231.794 228.984 228.829" stroke="#263238" stroke-width="0.670276" stroke-linecap="round" stroke-linejoin="round"/>
<path d="M216.336 225.346C216.336 225.346 218.817 232.966 223.956 235.022" stroke="#263238" stroke-width="0.670276" stroke-linecap="round" stroke-linejoin="round"/>
<path d="M243.78 209.752C244.802 207.303 245.482 204.691 245.548 202.033" stroke="white" stroke-width="0.670276" stroke-linecap="round" stroke-linejoin="round"/>
<path d="M229.246 209.222C231.498 211.539 233.141 214.59 233.966 217.699" stroke="white" stroke-width="0.670276" stroke-linecap="round" stroke-linejoin="round"/>
<path d="M252.729 216.77C250.509 218.014 247.858 218.636 245.324 218.583" stroke="white" stroke-width="0.670276" stroke-linecap="round" stroke-linejoin="round"/>
<path d="M245.77 233.307C242.653 232.92 239.537 232.377 236.486 231.65" stroke="white" stroke-width="0.670276" stroke-linecap="round" stroke-linejoin="round"/>
<path d="M216.336 225.346C217.207 227.696 218.47 229.974 220.074 231.905" stroke="white" stroke-width="0.670276" stroke-linecap="round" stroke-linejoin="round"/>
<path d="M68.6763 219.244C60.7091 223.238 56.9448 231.146 55.3736 235.65C54.9874 235.277 54.6077 234.904 54.2214 234.524C52.1592 232.495 50.156 230.406 48.2117 228.252C47.3606 227.316 46.5226 226.367 45.7043 225.405C45.3246 223.886 44.8925 222.282 44.4081 220.626C43.9891 219.192 43.5243 217.719 43.0202 216.226C42.4769 214.609 41.8877 212.973 41.2395 211.343C40.6831 209.935 40.0874 208.528 39.4458 207.146C38.778 205.706 38.2347 204.371 37.8026 203.153C35.9957 198.04 36.1136 194.832 37.0694 193.202C38.1561 191.356 40.3099 191.513 41.9662 193.202C42.2936 193.536 42.6209 193.955 42.9482 194.439C44.1724 196.259 45.4032 198.996 46.4572 201.693C48.1527 206.007 49.39 210.197 49.39 210.197C49.39 210.197 47.4588 196.069 48.0022 188.515C48.3884 183.212 48.9514 178.459 49.9923 175.088C51.1249 171.428 52.827 169.399 55.4915 170.06C59.2099 170.983 57.4161 179.873 56.2378 191.912C55.8253 196.096 55.4915 200.665 55.4915 205.411C55.4915 208.652 55.642 211.978 56.0348 215.323C56.0348 215.323 56.2378 214.989 56.5847 214.387C58.3588 211.303 63.9889 201.13 66.1231 192.272C68.6697 181.693 75.7466 186.132 73.4814 195.605C71.2163 205.078 61.8809 210.505 58.4178 220.796C58.4178 220.796 70.3587 209.346 74.3129 213.699C76.5387 216.154 71.0461 218.053 68.6697 219.244H68.6763Z" fill="#C4C6ED" stroke="#263238" stroke-width="0.670276" stroke-linecap="round" stroke-linejoin="round"/>
<path opacity="0.2" d="M68.6763 219.244C60.7091 223.238 56.9448 231.146 55.3736 235.65C54.9874 235.277 54.6077 234.904 54.2214 234.524C52.1592 232.495 50.156 230.406 48.2117 228.252C47.3606 227.316 46.5226 226.367 45.7043 225.405C45.3246 223.886 44.8925 222.282 44.4081 220.626C43.9891 219.192 43.5243 217.719 43.0202 216.226C42.4769 214.609 41.8877 212.973 41.2395 211.343C40.6831 209.935 40.0874 208.528 39.4458 207.146C38.778 205.706 38.2347 204.371 37.8026 203.153C35.9957 198.04 36.1136 194.832 37.0694 193.202C38.1561 191.356 40.3099 191.513 41.9662 193.202C42.2936 193.536 42.6209 193.955 42.9482 194.439C44.1724 196.259 45.4032 198.996 46.4572 201.693C48.1527 206.007 49.39 210.197 49.39 210.197C49.39 210.197 47.4588 196.069 48.0022 188.515C48.3884 183.212 48.9514 178.459 49.9923 175.088C51.1249 171.428 52.827 169.399 55.4915 170.06C59.2099 170.983 57.4161 179.873 56.2378 191.912C55.8253 196.096 55.4915 200.665 55.4915 205.411C55.4915 208.652 55.642 211.978 56.0348 215.323C56.0348 215.323 56.2378 214.989 56.5847 214.387C58.3588 211.303 63.9889 201.13 66.1231 192.272C68.6697 181.693 75.7466 186.132 73.4814 195.605C71.2163 205.078 61.8809 210.505 58.4178 220.796C58.4178 220.796 70.3587 209.346 74.3129 213.699C76.5387 216.154 71.0461 218.053 68.6697 219.244H68.6763Z" fill="black" stroke="#263238" stroke-width="0.670276" stroke-miterlimit="10"/>
<path d="M60.0812 202.413C58.438 206.328 57.3316 210.452 56.5918 214.387C54.582 225.045 55.2629 234.321 55.2629 234.321L54.222 234.524C52.1598 232.495 50.1566 230.406 48.2122 228.253C47.3612 227.316 46.5232 226.367 45.7049 225.405C43.1386 222.426 40.6837 219.349 38.34 216.187V216.181C37.0307 214.393 35.7475 212.587 34.5037 210.74C37.6853 212.096 41.1288 214.688 43.0273 216.226C43.9373 216.96 44.4938 217.457 44.4938 217.457C43.6427 215.205 42.5167 213.195 41.2467 211.343C36.7754 204.822 30.5627 200.122 28.5398 192.816C25.9342 183.428 32.8474 178.741 35.7737 189.228C36.1403 190.538 36.5855 191.867 37.0765 193.202C40.5658 202.564 46.6803 211.906 46.6803 211.906C45.0895 206.767 43.8064 200.574 42.9619 194.446C41.0306 180.423 41.3842 166.721 45.6132 166.649C48.8407 166.59 49.9798 169.563 50.0125 175.088C50.0387 177.713 49.8096 180.921 49.4364 184.659C48.2842 196.24 51.5706 212.907 51.5706 212.907C51.5706 212.907 53.4233 197.51 56.258 191.913C56.5526 191.336 56.8537 190.865 57.1614 190.525C60.4936 186.865 66.1891 187.886 60.0943 202.413H60.0812Z" fill="#C4C6ED" stroke="#263238" stroke-width="0.670276" stroke-linecap="round" stroke-linejoin="round"/>
<path d="M56.8467 201.745C51.6749 214.007 51.6814 231.755 51.6814 231.755C51.6814 231.755 43.9565 196.633 45.4753 181.746" stroke="#263238" stroke-width="0.670276" stroke-linecap="round" stroke-linejoin="round"/>
<path d="M33.4176 195.173C33.4176 195.173 41.6335 211.736 48.9854 218.014" stroke="#263238" stroke-width="0.670276" stroke-linecap="round" stroke-linejoin="round"/>
<path d="M50.6465 226.759C49.4681 224.933 47.0524 222.727 44.4076 220.625C42.3651 219.008 40.1916 217.45 38.3389 216.187V216.18" stroke="#263238" stroke-width="0.670276" stroke-linecap="round" stroke-linejoin="round"/>
<path d="M211.001 255.218C211.001 255.218 210.988 255.238 210.975 255.245C210.104 256.187 209.083 257.189 207.918 258.243C206.923 259.133 205.947 260.063 205.004 261.006C202.209 262.223 199.348 263.349 196.448 264.371C195.793 264.6 195.139 264.829 194.484 265.045C193.149 265.497 191.8 265.929 190.445 266.334C189.188 266.714 187.924 267.074 186.654 267.421C184.926 267.893 183.185 268.325 181.437 268.731C180.664 265.117 179.145 261.248 176.285 257.857C174.569 255.827 170.268 251.919 173.28 250.538C178.628 248.089 185.096 263.317 185.096 263.317C185.967 252.495 179.519 243.827 181.168 234.23C182.811 224.633 191.067 223.337 189.24 234.066C187.715 243.048 188.887 254.616 189.306 258.151C189.384 258.839 189.443 259.225 189.443 259.225C191.119 256.312 192.559 253.313 193.836 250.341C193.836 250.335 193.836 250.328 193.836 250.328C195.708 245.968 197.194 241.634 198.464 237.628C202.124 226.093 203.97 217.216 207.754 217.831C210.464 218.276 211.23 220.81 210.831 224.62C210.458 228.129 209.109 232.718 207.374 237.746C204.939 244.79 197.79 256.75 197.567 257.123C197.738 256.921 200.454 253.66 203.603 250.466C205.639 248.403 207.846 246.374 209.685 245.189C210.176 244.868 210.641 244.613 211.073 244.43C213.266 243.533 215.302 244.233 215.577 246.361C215.813 248.233 214.661 251.232 210.988 255.218H211.001Z" fill="#C4C6ED" stroke="#263238" stroke-width="0.670276" stroke-linecap="round" stroke-linejoin="round"/>
<path opacity="0.2" d="M211.001 255.218C211.001 255.218 210.988 255.238 210.975 255.245C210.104 256.187 209.083 257.189 207.918 258.243C206.923 259.133 205.947 260.063 205.004 261.006C202.209 262.223 199.348 263.349 196.448 264.371C195.793 264.6 195.139 264.829 194.484 265.045C193.149 265.497 191.8 265.929 190.445 266.334C189.188 266.714 187.924 267.074 186.654 267.421C184.926 267.893 183.185 268.325 181.437 268.731C180.664 265.117 179.145 261.248 176.285 257.857C174.569 255.827 170.268 251.919 173.28 250.538C178.628 248.089 185.096 263.317 185.096 263.317C185.967 252.495 179.519 243.827 181.168 234.23C182.811 224.633 191.067 223.337 189.24 234.066C187.715 243.048 188.887 254.616 189.306 258.151C189.384 258.839 189.443 259.225 189.443 259.225C191.119 256.312 192.559 253.313 193.836 250.341C193.836 250.335 193.836 250.328 193.836 250.328C195.708 245.968 197.194 241.634 198.464 237.628C202.124 226.093 203.97 217.216 207.754 217.831C210.464 218.276 211.23 220.81 210.831 224.62C210.458 228.129 209.109 232.718 207.374 237.746C204.939 244.79 197.79 256.75 197.567 257.123C197.738 256.921 200.454 253.66 203.603 250.466C205.639 248.403 207.846 246.374 209.685 245.189C210.176 244.868 210.641 244.613 211.073 244.43C213.266 243.533 215.302 244.233 215.577 246.361C215.813 248.233 214.661 251.232 210.988 255.218H211.001Z" fill="black" stroke="#263238" stroke-width="0.670276" stroke-miterlimit="10"/>
<path d="M223.589 249.366C219.164 254.898 212.264 256.901 205.933 260.593C205.625 260.731 205.318 260.868 205.003 261.006C202.208 262.223 199.347 263.349 196.447 264.371C195.792 264.6 195.138 264.829 194.483 265.045C193.148 265.497 191.799 265.929 190.444 266.335C189.187 266.714 187.923 267.074 186.653 267.421C187.596 264.698 188.552 261.542 189.305 258.151C190.175 254.243 190.778 250.014 190.81 245.765C190.928 230.014 196.565 231.317 198.188 235.991C198.332 236.43 198.424 236.98 198.47 237.628C198.869 243.795 194.647 258.328 194.522 258.76C194.817 258.335 204.152 244.574 207.596 233.641C208.728 230.06 209.776 227.022 210.836 224.62C213.043 219.553 215.255 217.268 218.201 218.597C222.064 220.325 216.99 233.058 209.697 245.183C206.509 250.485 202.895 255.67 199.413 259.768C199.694 259.579 208.807 253.484 215.596 246.361C216.571 245.327 217.507 244.279 218.358 243.219C225.18 234.734 229.684 241.765 223.596 249.366H223.589Z" fill="#C4C6ED" stroke="#263238" stroke-width="0.670276" stroke-linecap="round" stroke-linejoin="round"/>
<path d="M194.484 265.045C194.608 264.855 194.732 264.665 194.863 264.475C197.613 260.285 200.736 255.375 203.61 250.465C207.446 243.912 210.85 237.353 212.362 232.515" stroke="#263238" stroke-width="0.670276" stroke-linecap="round" stroke-linejoin="round"/>
<path d="M194.038 246.426C194.038 247.703 193.96 249.012 193.842 250.328C193.842 250.328 193.842 250.335 193.842 250.341C193.325 255.912 191.878 261.68 190.451 266.334" stroke="#263238" stroke-width="0.670276" stroke-linecap="round" stroke-linejoin="round"/>
<path d="M218.162 249.608C218.162 249.608 204.094 261.601 194.856 264.475" stroke="#263238" stroke-width="0.670276" stroke-linecap="round" stroke-linejoin="round"/>
<path d="M196.447 264.37C162.948 276.219 123.401 275.041 93.1161 261.444C75.951 253.745 60.8349 242.21 48.2132 228.253L59.4863 216.652H71.8856L77.3912 199.029C77.3912 199.029 164.991 197.765 172.991 198.243C180.984 198.728 186.948 210.047 186.948 210.047L177.259 225.457L190.091 244.495L196.447 264.37Z" fill="#A2ADB4"/>
<mask id="mask0_1014_1169" style="mask-type:luminance" maskUnits="userSpaceOnUse" x="48" y="198" width="149" height="75">
<path d="M196.447 264.37C162.948 276.219 123.401 275.041 93.1161 261.444C75.951 253.745 60.8349 242.21 48.2132 228.252L59.4863 216.652H71.8856L77.3912 199.029C77.3912 199.029 164.991 197.765 172.991 198.243C180.984 198.727 186.948 210.046 186.948 210.046L177.259 225.457L190.091 244.494L196.447 264.37Z" fill="white"/>
</mask>
<g mask="url(#mask0_1014_1169)">
<path opacity="0.3" d="M163.957 205.896C151.944 207.71 132.815 202.793 132.815 202.793C132.815 202.793 118.654 207.186 100.887 205.896C89.1621 205.045 83.807 201.373 81.5222 198.97C98.9688 198.728 166.039 197.831 172.991 198.243C173.665 198.283 174.333 198.401 174.975 198.59L169.397 200.266C169.397 200.266 175.976 204.083 163.957 205.896Z" fill="black"/>
<path opacity="0.3" d="M71.8858 216.652C71.8858 216.652 93.064 227.343 93.6008 226.76C94.1376 226.177 107.774 221.719 107.774 221.719L116.429 224.436L107.774 213.464L84.6975 212.764L77.3915 199.035L71.8858 216.659V216.652Z" fill="black"/>
<path opacity="0.3" d="M190.549 245.929L177.259 254.132L150.687 245.484L177.259 225.458L190.091 244.495L190.549 245.929Z" fill="black"/>
<path opacity="0.3" d="M171.648 270.635C144.605 274.95 116.173 271.794 93.1157 261.444C75.9506 253.745 60.8345 242.21 48.2127 228.253L59.4859 216.652L70.3598 240.233H102.752L124.86 259.434L154.909 260.835L171.648 270.635Z" fill="black"/>
<path d="M126.595 226.989L141.103 229.241L154.484 223.343L157.246 213.458L175.976 211.546L186.948 210.047" stroke="#263238" stroke-width="0.670276" stroke-linecap="round" stroke-linejoin="round"/>
<path d="M107.773 213.457L84.6968 212.757L77.3908 199.029" stroke="#263238" stroke-width="0.670276" stroke-linecap="round" stroke-linejoin="round"/>
<path d="M102.753 240.233L124.86 259.434L140.756 254.132L139.034 243.048L146.117 243.264" stroke="#263238" stroke-width="0.670276" stroke-linecap="round" stroke-linejoin="round"/>
<path d="M190.811 245.765L177.259 254.131L175.976 260.829" stroke="#263238" stroke-width="0.670276" stroke-linecap="round" stroke-linejoin="round"/>
</g>
<path d="M196.447 264.37C162.948 276.219 123.401 275.041 93.1161 261.444C75.951 253.745 60.8349 242.21 48.2131 228.253L59.4863 216.652H71.8856L77.3912 199.029C77.3912 199.029 164.991 197.765 172.991 198.243C180.984 198.728 186.948 210.047 186.948 210.047L177.259 225.457L190.091 244.495L196.447 264.37Z" stroke="#263238" stroke-width="0.670276" stroke-miterlimit="10"/>
<path d="M80.6668 176.626C78.9974 191.821 83.4295 199.075 91.8549 202.354C101.014 205.922 114.434 204.908 125.105 201.975C127.102 201.425 160.947 189.235 166.303 180.253C170.741 172.803 171.324 165.497 161.812 164.987C157.275 164.744 116.922 175.592 116.922 175.592L113.125 174.211L80.6668 176.626Z" fill="#2D3F45"/>
<path d="M103.513 104.673C103.206 105.007 102.957 105.465 102.754 106.009C102.302 107.2 102.086 108.784 101.981 110.277C101.824 112.653 101.968 114.801 101.968 114.801L91.0485 114.388C92.1549 108.621 88.5805 104.045 88.5805 104.045C88.3383 85.891 105.582 102.401 103.513 104.673Z" fill="#FFDCCC" stroke="#2D3F45" stroke-width="0.670276" stroke-linecap="round" stroke-linejoin="round"/>
<path d="M91.8604 111.449C91.8604 111.449 108.783 112.195 112.77 124.509C112.77 124.509 120.384 128.797 118.053 135.534C115.723 142.27 113.654 149.622 113.654 149.622C113.654 149.622 115.029 159.363 114.512 164.365C114.512 164.365 117.104 170.767 115.854 172.135C115.854 172.135 118.747 174.433 118.492 175.068C116.561 179.887 86.957 185.189 79.6248 179.815C77.3859 178.171 88.2794 150.564 87.2254 149.17C86.1714 147.776 81.7852 135.272 82.3024 133.196C82.3024 133.196 77.3794 134.722 77.3794 124.503C77.3794 114.283 84.4955 110.061 91.8473 111.442L91.8604 111.449Z" fill="#C1DDEF"/>
<mask id="mask1_1014_1169" style="mask-type:luminance" maskUnits="userSpaceOnUse" x="77" y="111" width="42" height="72">
<path d="M91.8594 111.449C91.8594 111.449 108.782 112.195 112.769 124.509C112.769 124.509 120.383 128.797 118.052 135.534C115.722 142.27 113.653 149.622 113.653 149.622C113.653 149.622 115.028 159.363 114.511 164.365C114.511 164.365 117.103 170.767 115.853 172.135C115.853 172.135 118.746 174.433 118.491 175.068C116.56 179.887 86.956 185.189 79.6239 179.815C77.3849 178.171 88.2784 150.564 87.2244 149.17C86.1704 147.776 81.7842 135.272 82.3014 133.196C82.3014 133.196 77.3784 134.722 77.3784 124.503C77.3784 114.283 84.4945 110.061 91.8463 111.442L91.8594 111.449Z" fill="white"/>
</mask>
<g mask="url(#mask1_1014_1169)">
<path opacity="0.2" d="M77.3914 124.516C77.3914 134.728 82.3079 133.203 82.3079 133.203C82.1638 133.779 82.3995 135.154 82.8316 136.875C83.1 136.725 83.3619 136.555 83.6172 136.371C90.3929 131.52 88.9395 117.622 104.363 118.224C104.363 118.224 98.7463 114.172 93.6007 115.593C88.4551 117.02 84.1147 122.087 82.5894 122.015C81.0706 121.936 83.447 119.769 83.6172 118.65C83.7547 117.786 80.5337 119.684 77.8955 120.155C77.5681 121.465 77.3914 122.918 77.3914 124.516Z" fill="#2D3F45"/>
<path opacity="0.2" d="M97.2606 144.607C97.2606 144.607 98.7532 162.204 115.303 166.604C114.904 165.34 114.511 164.371 114.511 164.371C115.028 159.363 113.653 149.622 113.653 149.622C113.653 149.622 115.715 142.27 118.052 135.534C118.092 135.422 118.124 135.311 118.157 135.2C116.462 134.741 114.308 133.694 112.508 131.337C108.92 126.643 97.2606 144.607 97.2606 144.607Z" fill="#2D3F45"/>
<path opacity="0.2" d="M104.363 176.404C104.363 176.404 111.192 177.399 117.738 176.044H117.745C118.111 175.723 118.36 175.395 118.491 175.075C118.727 174.485 116.265 172.476 115.899 172.175C112.756 173.634 107.519 175.913 104.363 176.404Z" fill="#2D3F45"/>
</g>
<path d="M91.8604 111.449C91.8604 111.449 108.783 112.195 112.77 124.509C112.77 124.509 120.384 128.797 118.053 135.534C115.723 142.27 113.654 149.622 113.654 149.622C113.654 149.622 115.029 159.363 114.512 164.365C114.512 164.365 117.104 170.767 115.854 172.135C115.854 172.135 118.747 174.433 118.492 175.068C116.561 179.887 86.957 185.189 79.6248 179.815C77.3859 178.171 88.2794 150.564 87.2254 149.17C86.1714 147.776 81.7852 135.272 82.3024 133.196C82.3024 133.196 77.3794 134.722 77.3794 124.503C77.3794 114.283 84.4955 110.061 91.8473 111.442L91.8604 111.449Z" stroke="#2D3F45" stroke-width="0.670276" stroke-linecap="round" stroke-linejoin="round"/>
<path d="M82.3085 133.203C85.6735 132.084 85.608 120.856 91.86 118.094C98.112 115.331 106.636 118.264 109.019 121.027" stroke="#2D3F45" stroke-width="0.670276" stroke-linecap="round" stroke-linejoin="round"/>
<path d="M156.292 161.949L166.348 163.317L169.503 165.916L170.59 169.89C170.59 169.89 169.163 169.458 168.109 166.997C168.109 166.997 166.878 166.237 165.641 165.38C165.641 165.38 163.624 166.25 159.88 166.224C157.628 166.204 157.097 168.62 154.191 167.874C149.019 166.551 156.299 161.949 156.299 161.949H156.292Z" fill="#FFDCCC" stroke="#2D3F45" stroke-width="0.670276" stroke-linecap="round" stroke-linejoin="round"/>
<path d="M100.097 122.29C107.737 119.527 115.894 137.975 123.665 148.136C124.784 149.602 146.453 157.458 153.707 160.05L158.368 161.432C158.368 161.432 155.606 167.821 151.632 169.89L148.005 168.856C148.005 168.856 114.683 162.237 110.807 159.73C108.837 158.453 91.8484 141.236 91.8549 135.881" fill="#C1DDEF"/>
<path d="M100.097 122.29C107.737 119.527 115.894 137.975 123.665 148.136C124.784 149.602 146.453 157.458 153.707 160.05L158.368 161.432C158.368 161.432 155.606 167.821 151.632 169.89L148.005 168.856C148.005 168.856 114.683 162.237 110.807 159.73C108.837 158.453 91.8484 141.236 91.8549 135.881" stroke="#2D3F45" stroke-width="0.670276" stroke-linecap="round" stroke-linejoin="round"/>
<path d="M137.832 199.278C135.822 193.183 142.873 190.747 146.519 191.644C150.166 192.541 155.141 190.872 158.958 191.448C162.775 192.024 166.742 192.194 165.707 198.237C164.673 204.279 139.999 205.831 137.832 199.271V199.278Z" fill="#757575" stroke="#2D3F45" stroke-width="0.670276" stroke-linecap="round" stroke-linejoin="round"/>
<path d="M151.208 192.548L151.679 193.844C151.679 193.844 156.183 192.462 158.959 193.196C161.734 193.929 163.031 193.759 163.378 194.878C163.725 195.998 164.327 198.243 163.378 198.59C162.428 198.937 154.487 201.183 152.759 201.006L152.072 202.819" stroke="#2D3F45" stroke-width="0.670276" stroke-linecap="round" stroke-linejoin="round"/>
<path d="M155.324 200.685V202.125" stroke="#2D3F45" stroke-width="0.670276" stroke-linecap="round" stroke-linejoin="round"/>
<path d="M158.519 199.952L158.958 201.405" stroke="#2D3F45" stroke-width="0.670276" stroke-linecap="round" stroke-linejoin="round"/>
<path d="M161.95 199.022L162.604 200.679" stroke="#2D3F45" stroke-width="0.670276" stroke-linecap="round" stroke-linejoin="round"/>
<path d="M163.888 197.432L165.19 197.68" stroke="#2D3F45" stroke-width="0.670276" stroke-linecap="round" stroke-linejoin="round"/>
<path d="M163.377 194.878L164.542 194.184" stroke="#2D3F45" stroke-width="0.670276" stroke-linecap="round" stroke-linejoin="round"/>
<path d="M161.433 193.739L161.95 192.548" stroke="#2D3F45" stroke-width="0.670276" stroke-linecap="round" stroke-linejoin="round"/>
<path d="M158.114 192.548V191.854" stroke="#2D3F45" stroke-width="0.670276" stroke-linecap="round" stroke-linejoin="round"/>
<path d="M154.905 193.143L154.486 191.854" stroke="#2D3F45" stroke-width="0.670276" stroke-linecap="round" stroke-linejoin="round"/>
<path d="M146.546 192.495L146.029 194.184C146.029 194.184 144.058 192.6 142.062 193.739C140.071 194.878 139.98 196.6 140.759 198.59C141.538 200.58 145.25 200.678 145.25 200.678L145.767 202.125" stroke="#2D3F45" stroke-width="0.670276" stroke-linecap="round" stroke-linejoin="round"/>
<path d="M142.402 201.405L142.906 200.259" stroke="#2D3F45" stroke-width="0.670276" stroke-linecap="round" stroke-linejoin="round"/>
<path d="M139.037 199.022L140.759 198.59" stroke="#2D3F45" stroke-width="0.670276" stroke-linecap="round" stroke-linejoin="round"/>
<path d="M139.037 195.082L140.51 195.396" stroke="#2D3F45" stroke-width="0.670276" stroke-linecap="round" stroke-linejoin="round"/>
<path d="M142.657 192.548L142.906 193.353" stroke="#2D3F45" stroke-width="0.670276" stroke-linecap="round" stroke-linejoin="round"/>
<path d="M150.69 195.082C150.69 195.082 152.241 196.987 151.207 200.26" stroke="#2D3F45" stroke-width="0.670276" stroke-linecap="round" stroke-linejoin="round"/>
<path d="M146.546 195.395C146.546 195.395 145.597 198.354 146.546 199.847" stroke="#2D3F45" stroke-width="0.670276" stroke-linecap="round" stroke-linejoin="round"/>
<path d="M147.325 194.184C147.325 194.184 148.804 194.413 149.832 193.739" stroke="#2D3F45" stroke-width="0.670276" stroke-linecap="round" stroke-linejoin="round"/>
<path d="M146.978 202.125C146.978 202.125 148.372 201.608 149.832 202.125" stroke="#2D3F45" stroke-width="0.670276" stroke-linecap="round" stroke-linejoin="round"/>
<path d="M154.486 194.878C154.486 194.878 154.755 197.235 154.696 199.029" stroke="#2D3F45" stroke-width="0.670276" stroke-linecap="round" stroke-linejoin="round"/>
<path d="M158.114 194.531C158.114 194.531 158.52 196.535 158.52 198.243" stroke="#2D3F45" stroke-width="0.670276" stroke-linecap="round" stroke-linejoin="round"/>
<path d="M161.433 194.878C161.433 194.878 161.819 196.875 161.95 197.562" stroke="#2D3F45" stroke-width="0.670276" stroke-linecap="round" stroke-linejoin="round"/>
<path d="M143.423 195.082C143.423 195.082 143.475 196.777 143.423 198.591" stroke="#2D3F45" stroke-width="0.670276" stroke-linecap="round" stroke-linejoin="round"/>
<g opacity="0.3">
<path d="M105.528 182.073C105.528 182.073 108.808 183.48 108.291 184.803C107.774 186.119 106.936 188.024 106.936 188.024C106.936 188.024 115.08 191.533 118.504 191.33C121.928 191.127 133.842 186.708 133.842 186.708V181.117L137.469 178.872C137.469 178.872 139.603 186.295 139.4 189.228L136.088 191.853L134.707 188.534" stroke="white" stroke-width="0.670276" stroke-linecap="round" stroke-linejoin="round"/>
<path d="M100.05 182.924C100.05 182.924 104.541 189.268 105.529 189.916C106.524 190.564 114.812 192.999 117.791 192.947C120.77 192.894 132.815 189.012 132.815 189.012" stroke="white" stroke-width="0.670276" stroke-linecap="round" stroke-linejoin="round"/>
<path d="M139.034 179.428C139.034 179.042 146.124 176.967 146.124 176.967C146.124 176.967 145.993 180.201 146.975 184.089L147.964 187.971C147.964 187.971 141.306 191.33 139.034 191.323" stroke="white" stroke-width="0.670276" stroke-linecap="round" stroke-linejoin="round"/>
<path d="M148.573 180.986C148.573 180.986 165.011 173.994 165.875 173.608C166.74 173.222 168.16 173.608 168.16 173.608" stroke="white" stroke-width="0.670276" stroke-linecap="round" stroke-linejoin="round"/>
<path d="M146.975 184.089C146.975 184.089 155.329 181.025 158.314 178.865C161.299 176.705 167.512 175.284 167.512 175.284" stroke="white" stroke-width="0.670276" stroke-linecap="round" stroke-linejoin="round"/>
<path d="M90.2109 187.33C90.2109 187.33 85.2879 187.461 83.4745 186.682L82.3092 191.33C82.3092 191.33 85.6741 192.875 87.3566 192.502C89.0391 192.122 90.2044 189.621 90.2044 189.621" stroke="white" stroke-width="0.670276" stroke-linecap="round" stroke-linejoin="round"/>
<path d="M91.2457 190.695C91.2457 190.695 93.9626 196.98 97.2031 198.243C97.2031 198.243 93.8382 200.364 88.6533 199.022C88.6533 199.022 84.1754 195.376 83.619 191.854" stroke="white" stroke-width="0.670276" stroke-linecap="round" stroke-linejoin="round"/>
</g>
<path d="M102.755 106.009C102.303 107.2 102.087 108.784 101.982 110.277C98.3687 108.018 99.0822 106.009 99.0822 106.009H102.755Z" fill="#2D3F45"/>
<path d="M89.1509 104.47C75.7435 89.2493 85.7598 81.0137 93.799 80.3918C111.848 78.9908 105.93 93.9563 106.971 94.8532C108.673 96.3131 110.323 96.8302 110.381 97.5635C110.473 98.6895 108.64 100.11 108.64 100.11L109.295 102.526L108.679 102.775C108.679 102.775 108.489 109.203 106.866 109.203C102.015 109.203 99.1279 107.645 98.5125 106.153" fill="#FFDCCC"/>
<path d="M89.1509 104.47C75.7435 89.2493 85.7598 81.0137 93.799 80.3918C111.848 78.9908 105.93 93.9563 106.971 94.8532C108.673 96.3131 110.323 96.8302 110.381 97.5635C110.473 98.6895 108.64 100.11 108.64 100.11L109.295 102.526L108.679 102.775C108.679 102.775 108.489 109.203 106.866 109.203C102.015 109.203 99.1279 107.645 98.5125 106.153" stroke="#2D3F45" stroke-width="0.670276" stroke-linecap="round" stroke-linejoin="round"/>
<path d="M105.831 89.1382C105.831 89.1382 103.5 89.2364 102.82 91.5408" stroke="#2D3F45" stroke-width="0.670276" stroke-linecap="round" stroke-linejoin="round"/>
<path d="M105.642 94.3951C105.695 95.0367 105.512 95.5735 105.237 95.5932C104.962 95.6128 104.7 95.1153 104.647 94.4671C104.595 93.8256 104.778 93.2888 105.053 93.2691C105.328 93.2495 105.59 93.747 105.642 94.3951Z" fill="#2D3F45"/>
<path d="M108.68 102.775C108.68 102.775 107.194 102.892 106.866 102.271" stroke="#2D3F45" stroke-width="0.670276" stroke-linecap="round" stroke-linejoin="round"/>
<path d="M100.909 78.9517C100.909 78.9517 105.413 78.9451 107.921 82.2119C110.428 85.4786 108.451 88.9417 108.451 88.9417L107.43 86.9319C107.43 86.9319 105.898 89.5048 101.734 89.472L102.415 86.4606C102.415 86.4606 100.896 89.8124 98.0354 90.8468L98.4544 96.143C98.4544 96.143 96.4446 93.963 94.3562 95.2592C90.461 97.6749 91.7638 104.123 91.7638 104.123C91.7638 104.123 88.3334 106.146 85.2696 104.634C82.2058 103.122 73.6036 92.8893 80.8179 83.3182C88.0323 73.7406 99.7964 78.009 100.909 78.9648V78.9517Z" fill="#2D3F45"/>
<path d="M96.5356 95.1152C96.5356 95.1152 92.7386 91.7503 91.5602 94.3362C90.3818 96.9221 91.9726 99.5735 93.8318 101.158C95.6911 102.742 99.344 102.978 97.7925 100.843" fill="#FFDCCC"/>
<path d="M96.5356 95.1152C96.5356 95.1152 92.7386 91.7503 91.5602 94.3362C90.3818 96.9221 91.9726 99.5735 93.8318 101.158C95.6911 102.742 99.344 102.978 97.7925 100.843" stroke="#2D3F45" stroke-width="0.670276" stroke-linecap="round" stroke-linejoin="round"/>
<path d="M80.8896 88.6472C80.8896 88.6472 77.4199 79.4754 68.7719 80.7913C62.8341 81.6947 67.1614 84.3526 67.1614 84.3526C67.1614 84.3526 60.7785 85.3804 59.2466 90.3362C58.4741 92.8304 63.3251 90.6766 63.3251 90.6766C63.3251 90.6766 61.3088 92.5358 60.6868 96.4703C60.2744 99.0758 63.2269 98.8009 67.7506 94.2052C67.7506 94.2052 67.2531 96.1037 64.4315 98.1266C61.6099 100.149 68.9028 101.217 72.6736 96.3525C72.6736 96.3525 72.4249 98.1921 73.8847 99.3443C75.3446 100.496 74.3823 95.5407 78.8601 93.8713C83.338 92.2019 80.8896 88.6472 80.8896 88.6472Z" fill="#2D3F45"/>
<g opacity="0.2">
<path d="M102.755 80.6667C102.755 80.6667 106.768 82.2707 105.839 85.8124" stroke="white" stroke-width="0.670276" stroke-linecap="round" stroke-linejoin="round"/>
<path d="M101.733 81.2759C101.733 81.2759 102.12 85.937 97.0723 87.7504" stroke="white" stroke-width="0.670276" stroke-linecap="round" stroke-linejoin="round"/>
<path d="M98.166 80.3004C98.166 80.3004 85.7864 77.6686 80.4837 87.7503" stroke="white" stroke-width="0.670276" stroke-linecap="round" stroke-linejoin="round"/>
<path d="M95.665 91.1809C95.665 91.1809 86.7159 94.4804 79.9794 91.1809" stroke="white" stroke-width="0.670276" stroke-linecap="round" stroke-linejoin="round"/>
<path d="M88.916 101.478C88.916 101.478 83.3121 99.0497 80.484 94.4343" stroke="white" stroke-width="0.670276" stroke-linecap="round" stroke-linejoin="round"/>
<path d="M77.3867 87.7505C77.3867 87.7505 71.246 83.528 66.3819 88.5295" stroke="white" stroke-width="0.670276" stroke-linecap="round" stroke-linejoin="round"/>
<path d="M76.0977 90.3429C76.0977 90.3429 70.9062 90.1138 70.3628 94.4345" stroke="white" stroke-width="0.670276" stroke-linecap="round" stroke-linejoin="round"/>
</g>
<path d="M115.854 172.136C115.854 172.136 104.744 178.866 91.1533 176.967" stroke="#2D3F45" stroke-width="0.670276" stroke-linecap="round" stroke-linejoin="round"/>
<path d="M91.8615 141.746C91.8615 141.746 94.9318 147.036 99.0234 147.501" stroke="#2D3F45" stroke-width="0.670276" stroke-linecap="round" stroke-linejoin="round"/>
<path d="M87.2327 149.17C87.2327 149.17 90.8202 153.661 93.6025 153.484" stroke="#2D3F45" stroke-width="0.670276" stroke-linecap="round" stroke-linejoin="round"/>
<path d="M154.905 160.404C154.905 160.404 153.727 164.574 149.832 167.232" stroke="#2D3F45" stroke-width="0.670276" stroke-linecap="round" stroke-linejoin="round"/>
<path d="M123.664 148.136C123.664 148.136 118.833 150.663 115.029 147.501" stroke="#2D3F45" stroke-width="0.670276" stroke-linecap="round" stroke-linejoin="round"/>
</g>
<defs>
<clipPath id="clip0_1014_1169">
<rect width="281.516" height="290" fill="white" transform="matrix(-1 0 0 1 282 0)"/>
</clipPath>
</defs>
</svg>
