<svg width="500" height="496" viewBox="0 0 500 496" fill="none" xmlns="http://www.w3.org/2000/svg">
<g clip-path="url(#clip0_975_2570)">
<path d="M411.653 30.5643C411.653 30.5643 355.795 -15.0573 283.138 5.17299C210.482 25.3911 180.076 87.993 138.398 131.022C116.573 153.553 84.3411 161.866 58.4263 179.212C-24.4668 234.669 -12.1971 359.349 51.7316 406.395C107.067 447.123 176.205 451.384 266.195 421.342C356.172 391.301 420.563 373.262 476.361 287.253C532.159 201.232 480.475 92.5089 411.665 30.5887L411.653 30.5643Z" fill="#C1DDEF"/>
<path d="M411.653 30.5643C411.653 30.5643 355.795 -15.0573 283.138 5.17299C210.482 25.3911 180.076 87.993 138.398 131.022C116.573 153.553 84.3411 161.866 58.4263 179.212C-24.4668 234.669 -12.1971 359.349 51.7316 406.395C107.067 447.123 176.205 451.384 266.195 421.342C356.172 391.301 420.563 373.262 476.361 287.253C532.159 201.232 480.475 92.5089 411.665 30.5887L411.653 30.5643Z" fill="#8AC6E8"/>
<path d="M411.653 30.5643C411.653 30.5643 355.795 -15.0573 283.138 5.17299C210.482 25.3911 180.076 87.993 138.398 131.022C116.573 153.553 84.3411 161.866 58.4263 179.212C-24.4668 234.669 -12.1971 359.349 51.7316 406.395C107.067 447.123 176.205 451.384 266.195 421.342C356.172 391.301 420.563 373.262 476.361 287.253C532.159 201.232 480.475 92.5089 411.665 30.5887L411.653 30.5643Z" fill="white" fill-opacity="0.65"/>
<path d="M422.34 495.264H66.9102L102.453 444.141H386.797L422.34 495.264Z" fill="#B6CDDA"/>
<path d="M216.216 294.422C216.216 294.422 198.36 296.041 191.872 284.685C185.384 273.328 196.741 259.525 184.569 254.656C172.396 249.787 157.79 266.012 133.445 252.221C109.1 238.43 122.088 220.573 128.576 206.782C135.064 192.991 138.314 186.491 122.892 177.569C107.469 168.646 90.4282 142.671 100.982 117.523C111.535 92.363 138.314 103.732 152.105 90.7441C165.896 77.7563 153.724 62.3462 152.921 41.2395C152.105 20.145 180.515 3.90719 208.098 7.97273C235.692 12.0261 241.364 41.2395 241.364 59.9117C241.364 78.584 270.578 83.4407 284.369 62.3462C298.16 41.2517 309.529 36.3828 329.808 45.305C350.099 54.2273 333.058 84.2563 342.796 89.1252C352.534 93.9941 360.653 70.4651 389.866 84.2563C419.079 98.0474 402.854 134.564 388.235 143.499C366.982 156.511 392.045 181.744 396.086 197.178C401.99 219.758 383.816 237.821 361.468 236.811C325.767 235.192 316.832 229.508 309.529 240.061C302.226 250.614 324.951 253.049 321.701 270.09C318.451 287.131 311.963 293.619 297.357 293.619C282.75 293.619 273.828 280.631 258.405 287.131C242.983 293.619 223.508 298.488 216.204 294.435L216.216 294.422Z" fill="#2D3F45" stroke="#2D3F45" stroke-width="1.38764" stroke-linecap="round" stroke-linejoin="round"/>
<path d="M188.025 410.668C188.025 410.668 183.765 424.97 185.286 440.49C186.808 456.009 194.72 464.226 229.106 469.399C263.493 474.572 287.229 470.312 306.4 461.183C325.572 452.054 321.226 419.298 316.248 411.788C311.269 404.277 292.098 402.756 261.059 405.495C230.019 408.233 210.848 403.364 199.589 405.19C188.329 407.016 188.025 410.668 188.025 410.668Z" fill="#9C9EBD" stroke="#2D3F45" stroke-width="1.38764" stroke-linecap="round" stroke-linejoin="round"/>
<path opacity="0.3" d="M297.576 415.537C297.576 415.537 281.143 419.797 269.58 422.84C258.016 425.883 256.799 427.1 267.145 428.317C277.492 429.535 296.967 428.317 296.967 428.317C296.967 428.317 269.58 441.098 254.973 444.141C240.366 447.184 213.587 437.447 210.544 435.012C207.501 432.578 223.325 432.578 227.585 430.752C231.846 428.926 229.411 426.492 214.196 424.057C198.981 421.623 202.024 435.621 215.413 445.359C228.803 455.096 236.715 458.14 254.06 455.096C271.405 452.053 295.141 444.75 303.053 430.143C310.965 415.537 297.576 415.537 297.576 415.537Z" fill="#2C4D59"/>
<path d="M180.258 318.097L178.238 358.765C178.238 358.765 174.647 368.198 181.159 374.272C187.671 380.334 196.216 378.545 200.708 370.682C205.199 362.818 204.53 344.621 205.65 337.427C206.769 330.233 198.005 322.82 190.824 320.13C183.63 317.44 180.258 318.11 180.258 318.11V318.097Z" fill="#FFDCCC" stroke="#2D3F45" stroke-width="1.38764" stroke-linecap="round" stroke-linejoin="round"/>
<path d="M322.602 318.097L324.623 358.764C324.623 358.764 328.213 368.198 321.701 374.272C315.189 380.334 306.644 378.544 302.153 370.681C297.661 362.818 298.33 344.62 297.211 337.426C296.091 330.233 304.855 322.82 312.036 320.13C319.23 317.44 322.602 318.109 322.602 318.109V318.097Z" fill="#FFDCCC" stroke="#2D3F45" stroke-width="1.38764" stroke-linecap="round" stroke-linejoin="round"/>
<path d="M235.266 257.528C235.266 257.528 236.033 274.436 231.931 281.617C227.828 288.787 214.755 288.275 206.308 288.275C197.86 288.275 185.299 295.189 181.197 302.115C177.094 309.029 173.248 319.802 173.248 319.802L201.439 334.92C201.439 334.92 198.359 340.811 201.439 349.526C204.519 358.242 209.132 361.565 207.842 365.922C206.564 370.28 189.9 401.283 188.366 406.152C186.832 411.02 186.577 413.065 186.577 413.065C186.577 413.065 222.193 419.979 253.208 418.957C284.223 417.934 316.248 411.787 316.248 411.787C316.248 411.787 306.766 395.136 301.641 385.653C296.517 376.171 291.903 366.433 292.926 363.098C293.948 359.763 299.84 350.792 299.584 335.163C299.584 335.163 322.395 329.272 330.842 319.789C330.842 319.789 320.849 294.934 310.6 290.832C300.351 286.73 288.556 290.832 280.108 288.531C271.661 286.23 267.291 282.128 266.013 279.049C264.735 275.969 263.445 261.618 263.968 258.295L235.266 257.528Z" fill="#C1DDEF" stroke="#2D3F45" stroke-width="1.38764" stroke-linecap="round" stroke-linejoin="round"/>
<path opacity="0.3" d="M209.327 356.501C209.327 356.501 200.807 347.372 210.545 346.154C220.282 344.937 234.281 354.675 249.496 358.327C264.711 361.978 282.97 345.546 290.882 347.98C298.794 350.415 293.925 362.587 285.404 368.064C276.883 373.542 253.148 372.933 239.758 372.325C226.369 371.716 219.674 368.064 209.327 356.501Z" fill="#2C4D59"/>
<path d="M220.268 362.16C220.268 362.16 224.905 365.873 237.272 365.873C249.639 365.873 259.219 360.31 267.873 361.856" stroke="#2D3F45" stroke-width="1.38764" stroke-linecap="round" stroke-linejoin="round"/>
<path d="M215.011 363.085C215.011 363.085 220.269 367.418 231.078 367.723" stroke="#2D3F45" stroke-width="1.38764" stroke-linecap="round" stroke-linejoin="round"/>
<path d="M201.439 334.919C201.439 334.919 202.34 330.33 208.207 325.997" stroke="#2D3F45" stroke-width="1.38764" stroke-linecap="round" stroke-linejoin="round"/>
<path d="M299.585 335.176C299.585 335.176 297.54 326.302 291.978 324.452" stroke="#2D3F45" stroke-width="1.38764" stroke-linecap="round" stroke-linejoin="round"/>
<path d="M251.662 319.789C271.709 318.998 278.002 299.705 279.974 288.482C271.6 286.169 267.279 282.091 266.013 279.036C264.735 275.957 263.444 261.606 263.968 258.282L235.266 257.516C235.266 257.516 236.032 274.423 231.93 281.605C229.837 285.281 225.382 286.924 220.403 287.678C222.302 295.737 229.946 320.653 251.662 319.789Z" fill="#FFDCCC"/>
<mask id="mask0_975_2570" style="mask-type:luminance" maskUnits="userSpaceOnUse" x="220" y="257" width="60" height="63">
<path d="M251.66 319.789C271.707 318.998 278 299.705 279.972 288.482C271.598 286.169 267.277 282.091 266.011 279.036C264.733 275.957 263.442 261.606 263.966 258.282L235.264 257.516C235.264 257.516 236.031 274.423 231.928 281.605C229.835 285.281 225.38 286.924 220.401 287.678C222.3 295.737 229.944 320.653 251.66 319.789Z" fill="white"/>
</mask>
<g mask="url(#mask0_975_2570)">
<path opacity="0.3" d="M264.453 270.15C263.942 265.342 263.674 260.133 263.966 258.295L235.264 257.528C235.264 257.528 235.556 263.967 234.813 270.589C239.853 273.887 250.065 277.831 264.453 270.163V270.15Z" fill="#2C4D59"/>
</g>
<path d="M251.662 319.789C271.709 318.998 278.002 299.705 279.974 288.482C271.6 286.169 267.279 282.091 266.013 279.036C264.735 275.957 263.444 261.606 263.968 258.282L235.266 257.516C235.266 257.516 236.032 274.423 231.93 281.605C229.837 285.281 225.382 286.924 220.403 287.678C222.302 295.737 229.946 320.653 251.662 319.789Z" stroke="#2D3F45" stroke-width="1.38764" stroke-linecap="round" stroke-linejoin="round"/>
<path d="M223.094 222.594C223.094 222.594 219.478 216.654 215.851 220.269C212.236 223.884 215.851 231.126 218.176 234.486C220.501 237.846 224.895 240.426 225.93 239.136C226.964 237.846 223.081 222.594 223.081 222.594H223.094Z" fill="#FFDCCC" stroke="#2D3F45" stroke-width="1.38764" stroke-linecap="round" stroke-linejoin="round"/>
<path d="M279.196 222.082C279.196 222.082 284.37 215.363 287.206 221.826C290.054 228.29 282.288 238.113 278.673 239.927C275.058 241.74 276.859 235.788 277.127 233.719C277.383 231.649 279.196 222.082 279.196 222.082Z" fill="#FFDCCC" stroke="#2D3F45" stroke-width="1.38764" stroke-linecap="round" stroke-linejoin="round"/>
<path d="M220.245 199.843C220.245 199.843 222.059 224.407 223.349 236.81C224.639 249.214 229.289 260.339 243.518 263.955C257.736 267.57 269.117 262.664 273.243 254.387C277.382 246.11 279.707 230.347 279.707 217.42V196.739C279.707 196.739 242.995 186.393 220.245 199.843Z" fill="#FFDCCC" stroke="#2D3F45" stroke-width="1.38764" stroke-linecap="round" stroke-linejoin="round"/>
<path d="M247.657 235.009C247.657 235.009 249.982 236.555 252.051 236.555C254.121 236.555 256.701 235.009 256.701 235.009" stroke="#2D3F45" stroke-width="1.38764" stroke-linecap="round" stroke-linejoin="round"/>
<path d="M244.3 243.018C244.3 243.018 250.763 247.157 260.063 242.507" stroke="#2D3F45" stroke-width="1.38764" stroke-linecap="round" stroke-linejoin="round"/>
<path d="M233.952 222.082C233.952 222.082 239.381 221.303 242.485 223.372" stroke="#2D3F45" stroke-width="2.77528" stroke-linecap="round" stroke-linejoin="round"/>
<path d="M259.282 223.117C259.282 223.117 264.455 220.537 269.361 222.862" stroke="#2D3F45" stroke-width="2.77528" stroke-linecap="round" stroke-linejoin="round"/>
<path d="M221.804 219.721C222.777 218.224 224.238 215.4 225.93 210.178C228.072 203.593 227.756 198.845 227.342 196.521C224.871 197.421 222.485 198.505 220.233 199.831C220.233 199.831 220.939 209.46 221.791 219.709L221.804 219.721Z" fill="#2D3F45" stroke="#2D3F45" stroke-width="1.38764" stroke-linecap="round" stroke-linejoin="round"/>
<path d="M279.706 217.664C279.706 217.579 279.706 217.506 279.706 217.42V196.74C279.706 196.74 277.174 196.034 273.048 195.23C273.303 199.247 274.509 211.347 279.694 217.664H279.706Z" fill="#2D3F45" stroke="#2D3F45" stroke-width="1.38764" stroke-linecap="round" stroke-linejoin="round"/>
<path d="M231.883 213.027C231.883 213.027 236.277 207.087 245.589 208.888" stroke="#2D3F45" stroke-width="1.38764" stroke-linecap="round" stroke-linejoin="round"/>
<path d="M258.771 209.668C258.771 209.668 265.491 206.819 271.443 211.992" stroke="#2D3F45" stroke-width="1.38764" stroke-linecap="round" stroke-linejoin="round"/>
<path d="M254.059 455.095C254.059 455.095 242.191 455.095 220.89 434.098C199.588 413.101 186.199 395.451 169.766 388.148C153.333 380.845 137.51 396.973 138.422 414.318C139.335 431.664 152.116 456.008 190.155 470.006C228.193 484.005 260.754 478.223 264.101 478.223C267.448 478.223 283.881 486.439 293.619 487.352C303.357 488.265 309.747 487.352 309.747 487.352C309.747 487.352 312.486 487.656 314.007 487.656C315.529 487.656 317.355 485.83 317.355 485.83C317.355 485.83 320.434 486.634 321.652 484.504C322.869 482.374 321.919 481.57 321.919 481.57C321.919 481.57 327.129 482.021 328.955 478.673C330.781 475.326 328.176 475.447 328.176 475.447C328.176 475.447 331.742 474.754 331.657 471.881C331.584 469.532 331.048 468.777 331.048 468.777C331.048 468.777 333.179 465.43 332.266 462.691C331.353 459.952 328.005 459.039 324.658 460.561C321.311 462.082 305.182 461.474 292.097 460.561C279.012 459.648 254.059 455.083 254.059 455.083V455.095Z" fill="#FFDCCC" stroke="#2D3F45" stroke-width="1.38764" stroke-linecap="round" stroke-linejoin="round"/>
<path d="M248.754 453.842C243.325 451.895 233.868 446.892 220.88 434.099C199.578 413.102 186.189 395.452 169.756 388.149C153.324 380.845 137.5 396.973 138.413 414.319C139.326 431.664 152.106 456.009 190.145 470.007C206.504 476.032 221.841 478.381 234.281 479.124C248.109 473.342 249.399 461.194 248.742 453.842H248.754Z" fill="#9C9EBD"/>
<mask id="mask1_975_2570" style="mask-type:luminance" maskUnits="userSpaceOnUse" x="138" y="386" width="111" height="94">
<path d="M248.755 453.842C243.326 451.894 233.869 446.891 220.881 434.098C199.579 413.101 186.19 395.451 169.757 388.148C153.325 380.845 137.501 396.973 138.414 414.318C139.327 431.664 152.107 456.008 190.146 470.006C206.505 476.032 221.842 478.381 234.282 479.123C248.11 473.342 249.4 461.194 248.743 453.842H248.755Z" fill="white"/>
</mask>
<g mask="url(#mask1_975_2570)">
<path opacity="0.3" d="M243.583 472.55C237.582 470.274 230.583 467.84 222.707 465.442C194.711 456.921 174.018 446.575 160.02 430.751C146.022 414.927 150.891 394.843 150.891 394.843L147.665 391.921C141.725 397.204 137.952 405.603 138.414 414.318C139.327 431.664 152.108 456.008 190.146 470.006C206.506 476.032 221.843 478.381 234.283 479.123C238.397 477.407 241.404 475.119 243.57 472.55H243.583Z" fill="#2C4D59"/>
</g>
<path d="M248.754 453.842C243.325 451.895 233.868 446.892 220.88 434.099C199.578 413.102 186.189 395.452 169.756 388.149C153.324 380.845 137.5 396.973 138.413 414.319C139.326 431.664 152.106 456.009 190.145 470.007C206.504 476.032 221.841 478.381 234.281 479.124C248.109 473.342 249.399 461.194 248.742 453.842H248.754Z" stroke="#2D3F45" stroke-width="1.38764" stroke-linecap="round" stroke-linejoin="round"/>
<path d="M331.049 468.79C331.049 468.79 327.835 467.28 325.133 468.936L331.049 468.79Z" fill="#FFDCCC"/>
<path d="M331.049 468.79C331.049 468.79 327.835 467.28 325.133 468.936" stroke="#2D3F45" stroke-width="1.38764" stroke-linecap="round" stroke-linejoin="round"/>
<path d="M328.177 475.46C328.177 475.46 325.609 474.474 323.26 475.521L328.177 475.46Z" fill="#FFDCCC"/>
<path d="M328.177 475.46C328.177 475.46 325.609 474.474 323.26 475.521" stroke="#2D3F45" stroke-width="1.38764" stroke-linecap="round" stroke-linejoin="round"/>
<path d="M321.922 481.57C321.922 481.57 320.352 480.244 318.003 480.414L321.922 481.57Z" fill="#FFDCCC"/>
<path d="M321.922 481.57C321.922 481.57 320.352 480.244 318.003 480.414" stroke="#2D3F45" stroke-width="1.38764" stroke-linecap="round" stroke-linejoin="round"/>
<path d="M317.038 485.465C317.038 485.465 315.736 483.116 313.812 483.116L317.038 485.465Z" fill="#FFDCCC"/>
<path d="M317.038 485.465C317.038 485.465 315.736 483.116 313.812 483.116" stroke="#2D3F45" stroke-width="1.38764" stroke-linecap="round" stroke-linejoin="round"/>
<path d="M240.548 455.097C240.548 455.097 252.416 455.097 273.718 434.1C295.019 413.103 308.409 395.453 324.841 388.15C341.274 380.846 357.098 396.974 356.185 414.32C355.272 431.665 342.491 456.01 304.453 470.008C266.415 484.006 233.854 478.224 230.506 478.224C227.159 478.224 210.726 486.441 200.989 487.353C191.251 488.266 184.86 487.353 184.86 487.353C184.86 487.353 182.122 487.658 180.6 487.658C179.079 487.658 177.253 485.832 177.253 485.832C177.253 485.832 174.173 486.635 172.956 484.505C171.739 482.375 172.688 481.572 172.688 481.572C172.688 481.572 167.478 482.022 165.653 478.675C163.827 475.327 166.432 475.449 166.432 475.449C166.432 475.449 162.865 474.755 162.95 471.882C163.023 469.533 163.559 468.779 163.559 468.779C163.559 468.779 161.429 465.431 162.342 462.692C163.255 459.954 166.602 459.041 169.949 460.562C173.297 462.084 189.425 461.475 202.51 460.562C215.595 459.649 240.548 455.085 240.548 455.085V455.097Z" fill="#FFDCCC" stroke="#2D3F45" stroke-width="1.38764" stroke-linecap="round" stroke-linejoin="round"/>
<path d="M245.844 453.843C251.273 451.896 260.731 446.893 273.719 434.1C295.02 413.103 308.409 395.453 324.842 388.15C341.275 380.846 357.099 396.974 356.186 414.32C355.273 431.665 342.492 456.01 304.453 470.008C288.094 476.033 272.757 478.382 260.317 479.125C246.489 473.343 245.199 461.195 245.856 453.843H245.844Z" fill="#9C9EBD"/>
<mask id="mask2_975_2570" style="mask-type:luminance" maskUnits="userSpaceOnUse" x="245" y="386" width="112" height="94">
<path d="M245.843 453.843C251.272 451.896 260.73 446.893 273.718 434.1C295.019 413.103 308.408 395.453 324.841 388.15C341.274 380.846 357.098 396.974 356.185 414.32C355.272 431.665 342.491 456.01 304.452 470.008C288.093 476.033 272.756 478.382 260.316 479.125C246.488 473.343 245.198 461.195 245.855 453.843H245.843Z" fill="white"/>
</mask>
<g mask="url(#mask2_975_2570)">
<path opacity="0.3" d="M356.186 414.319C356.819 402.232 349.333 390.754 339.169 387.358L334.69 390.584C334.69 390.584 349.905 399.713 346.253 417.363C342.602 435.012 312.78 453.271 289.044 463.008C277.857 467.597 264.383 471.505 252.746 474.365C254.706 476.191 257.189 477.822 260.305 479.125C272.745 478.382 288.082 476.033 304.442 470.008C342.48 456.009 355.261 431.665 356.174 414.319H356.186Z" fill="#2C4D59"/>
</g>
<path d="M245.844 453.843C251.273 451.896 260.731 446.893 273.719 434.1C295.02 413.103 308.409 395.453 324.842 388.15C341.275 380.846 357.099 396.974 356.186 414.32C355.273 431.665 342.492 456.01 304.453 470.008C288.094 476.033 272.757 478.382 260.317 479.125C246.489 473.343 245.199 461.195 245.856 453.843H245.844Z" stroke="#2D3F45" stroke-width="1.38764" stroke-linecap="round" stroke-linejoin="round"/>
<path d="M163.56 468.79C163.56 468.79 166.773 467.281 169.475 468.936L163.56 468.79Z" fill="#FFDCCC"/>
<path d="M163.56 468.79C163.56 468.79 166.773 467.281 169.475 468.936" stroke="#2D3F45" stroke-width="1.38764" stroke-linecap="round" stroke-linejoin="round"/>
<path d="M166.431 475.462C166.431 475.462 168.999 474.476 171.348 475.523L166.431 475.462Z" fill="#FFDCCC"/>
<path d="M166.431 475.462C166.431 475.462 168.999 474.476 171.348 475.523" stroke="#2D3F45" stroke-width="1.38764" stroke-linecap="round" stroke-linejoin="round"/>
<path d="M172.687 481.571C172.687 481.571 174.257 480.245 176.606 480.415L172.687 481.571Z" fill="#FFDCCC"/>
<path d="M172.687 481.571C172.687 481.571 174.257 480.245 176.606 480.415" stroke="#2D3F45" stroke-width="1.38764" stroke-linecap="round" stroke-linejoin="round"/>
<path d="M177.569 485.467C177.569 485.467 178.872 483.118 180.795 483.118L177.569 485.467Z" fill="#FFDCCC"/>
<path d="M177.569 485.467C177.569 485.467 178.872 483.118 180.795 483.118" stroke="#2D3F45" stroke-width="1.38764" stroke-linecap="round" stroke-linejoin="round"/>
<path d="M185.433 361.454C185.433 361.454 180.942 360.554 172.847 364.595C164.765 368.636 157.34 375.83 153.079 378.301C148.819 380.772 145.886 382.342 142.076 378.52C138.266 374.698 130.171 364.144 122.527 364.363C114.883 364.583 112.193 375.148 113.544 377.4C114.895 379.652 116.916 380.09 118.486 378.301C120.056 376.499 122.077 372.908 124.097 374.259C126.118 375.611 124.998 381.904 121.845 383.024C118.705 384.143 110.16 389.536 112.181 392.688C114.201 395.841 125.655 400.101 134.2 400.771C142.733 401.44 153.298 395.597 160.261 394.478C167.224 393.358 186.103 392.007 194.855 384.813C203.619 377.619 201.367 367.516 201.367 367.516" fill="#FFDCCC"/>
<path d="M185.433 361.454C185.433 361.454 180.942 360.554 172.847 364.595C164.765 368.636 157.34 375.83 153.079 378.301C148.819 380.772 145.886 382.342 142.076 378.52C138.266 374.698 130.171 364.144 122.527 364.363C114.883 364.583 112.193 375.148 113.544 377.4C114.895 379.652 116.916 380.09 118.486 378.301C120.056 376.499 122.077 372.908 124.097 374.259C126.118 375.611 124.998 381.904 121.845 383.024C118.705 384.143 110.16 389.536 112.181 392.688C114.201 395.841 125.655 400.101 134.2 400.771C142.733 401.44 153.298 395.597 160.261 394.478C167.224 393.358 186.103 392.007 194.855 384.813C203.619 377.619 201.367 367.516 201.367 367.516" stroke="#2D3F45" stroke-width="1.38764" stroke-linecap="round" stroke-linejoin="round"/>
<path d="M113.312 387.966C113.312 387.966 112.412 378.082 109.49 377.401C106.569 376.719 106.119 383.463 106.569 389.987C107.019 396.499 110.61 398.3 112.862 396.499C115.114 394.698 113.312 387.966 113.312 387.966Z" fill="#FFDCCC" stroke="#2D3F45" stroke-width="1.38764" stroke-linecap="round" stroke-linejoin="round"/>
<path d="M120.324 390.754C120.324 390.754 121.188 380.87 118.425 379.689C115.662 378.508 114.043 385.069 113.325 391.557C112.619 398.045 115.832 400.455 118.364 399.079C120.896 397.704 120.311 390.754 120.311 390.754H120.324Z" fill="#FFDCCC" stroke="#2D3F45" stroke-width="1.38764" stroke-linecap="round" stroke-linejoin="round"/>
<path d="M126.399 392.993C126.399 392.993 127.263 383.109 124.5 381.928C121.749 380.748 120.118 387.308 119.4 393.796C118.682 400.284 121.907 402.694 124.439 401.319C126.971 399.943 126.387 392.993 126.387 392.993H126.399Z" fill="#FFDCCC" stroke="#2D3F45" stroke-width="1.38764" stroke-linecap="round" stroke-linejoin="round"/>
<path d="M142.294 400.321C135.332 403.461 129.258 403.011 129.258 403.011C129.258 403.011 128.808 399.87 128.808 397.399C128.808 394.928 133.981 384.813 141.613 385.495" fill="#FFDCCC"/>
<path d="M142.294 400.321C135.332 403.461 129.258 403.011 129.258 403.011C129.258 403.011 128.808 399.87 128.808 397.399C128.808 394.928 133.981 384.813 141.613 385.495" stroke="#2D3F45" stroke-width="1.38764" stroke-linecap="round" stroke-linejoin="round"/>
<path d="M132.825 396.876C132.825 396.876 135.685 389.134 133.324 387.333C130.963 385.531 128.066 390.327 126.045 395.366C124.037 400.406 126.581 403.351 129.259 403.011C131.936 402.67 132.825 396.876 132.825 396.876Z" fill="#FFDCCC" stroke="#2D3F45" stroke-width="1.38764" stroke-linecap="round" stroke-linejoin="round"/>
<path d="M317.441 361.454C317.441 361.454 321.933 360.554 330.027 364.595C338.11 368.636 345.535 375.83 349.795 378.301C354.055 380.772 356.989 382.342 360.799 378.52C364.621 374.698 372.703 364.144 380.347 364.363C387.991 364.583 390.682 375.148 389.33 377.4C387.979 379.652 385.959 380.09 384.388 378.301C382.818 376.499 380.798 372.908 378.777 374.259C376.756 375.611 377.876 381.904 381.029 383.024C384.169 384.143 392.714 389.536 390.694 392.688C388.673 395.841 377.219 400.101 368.674 400.771C360.141 401.44 349.576 395.597 342.613 394.478C335.651 393.358 316.772 392.007 308.02 384.813C299.256 377.619 301.508 367.516 301.508 367.516" fill="#FFDCCC"/>
<path d="M317.441 361.454C317.441 361.454 321.933 360.554 330.027 364.595C338.11 368.636 345.535 375.83 349.795 378.301C354.055 380.772 356.989 382.342 360.799 378.52C364.621 374.698 372.703 364.144 380.347 364.363C387.991 364.583 390.682 375.148 389.33 377.4C387.979 379.652 385.959 380.09 384.388 378.301C382.818 376.499 380.798 372.908 378.777 374.259C376.756 375.611 377.876 381.904 381.029 383.024C384.169 384.143 392.714 389.536 390.694 392.688C388.673 395.841 377.219 400.101 368.674 400.771C360.141 401.44 349.576 395.597 342.613 394.478C335.651 393.358 316.772 392.007 308.02 384.813C299.256 377.619 301.508 367.516 301.508 367.516" stroke="#2D3F45" stroke-width="1.38764" stroke-linecap="round" stroke-linejoin="round"/>
<path d="M389.563 387.966C389.563 387.966 390.464 378.082 393.385 377.401C396.306 376.719 396.757 383.463 396.306 389.987C395.856 396.499 392.265 398.3 390.013 396.499C387.762 394.698 389.563 387.966 389.563 387.966Z" fill="#FFDCCC" stroke="#2D3F45" stroke-width="1.38764" stroke-linecap="round" stroke-linejoin="round"/>
<path d="M382.539 390.754C382.539 390.754 381.675 380.87 384.438 379.689C387.201 378.508 388.82 385.069 389.538 391.557C390.244 398.045 387.031 400.455 384.499 399.079C381.967 397.704 382.551 390.754 382.551 390.754H382.539Z" fill="#FFDCCC" stroke="#2D3F45" stroke-width="1.38764" stroke-linecap="round" stroke-linejoin="round"/>
<path d="M376.477 392.993C376.477 392.993 375.612 383.109 378.375 381.928C381.126 380.748 382.758 387.308 383.476 393.796C384.194 400.284 380.968 402.694 378.436 401.319C375.905 399.943 376.489 392.993 376.489 392.993H376.477Z" fill="#FFDCCC" stroke="#2D3F45" stroke-width="1.38764" stroke-linecap="round" stroke-linejoin="round"/>
<path d="M360.58 400.321C367.543 403.461 373.617 403.011 373.617 403.011C373.617 403.011 374.067 399.87 374.067 397.399C374.067 394.928 368.894 384.813 361.262 385.495" fill="#FFDCCC"/>
<path d="M360.58 400.321C367.543 403.461 373.617 403.011 373.617 403.011C373.617 403.011 374.067 399.87 374.067 397.399C374.067 394.928 368.894 384.813 361.262 385.495" stroke="#2D3F45" stroke-width="1.38764" stroke-linecap="round" stroke-linejoin="round"/>
<path d="M370.038 396.876C370.038 396.876 367.177 389.134 369.539 387.333C371.9 385.531 374.797 390.327 376.818 395.366C378.826 400.406 376.282 403.351 373.604 403.011C370.926 402.67 370.038 396.876 370.038 396.876Z" fill="#FFDCCC" stroke="#2D3F45" stroke-width="1.38764" stroke-linecap="round" stroke-linejoin="round"/>
<path fill-rule="evenodd" clip-rule="evenodd" d="M208.28 70.3318C207.526 70.3318 206.942 70.1249 206.503 69.8693C205.444 69.2485 204.811 68.0313 204.848 66.6923C204.897 65.3899 205.542 64.3066 206.589 63.7953C207.562 63.3084 208.487 62.785 209.279 62.3103C206.089 62.7729 201.148 63.0528 198.226 61.0931C197.216 60.4114 196.778 59.6446 196.924 58.829C197.167 57.5023 199.054 56.4555 200.88 55.7373C195.658 55.3965 187.149 54.3253 187.21 51.0266C187.235 49.8824 187.636 48.9573 188.428 48.3C190.375 46.669 194.197 47.0098 197.325 47.4845C199.358 47.801 201.586 48.3366 203.339 48.7991C201.927 47.5819 200.6 46.0969 200.831 44.9648C200.928 44.5023 201.294 43.8937 202.523 43.6624C205.578 43.0903 211.092 47.448 214.537 50.5154C213.551 48.4583 212.784 46.1699 213.636 45.0987C214.476 44.0398 216.156 44.6362 216.704 44.8309C221.767 46.6203 223.861 56.5772 224.713 64.623C224.737 64.8658 224.762 65.036 224.774 65.1214C224.798 65.304 224.737 65.4873 224.616 65.6212C224.494 65.7551 224.311 65.8281 224.141 65.8159L224.129 65.8156C223.813 65.8069 217.533 65.6342 211.871 69.1146C210.398 70.0275 209.206 70.3318 208.28 70.3318ZM212.151 60.5453C212.383 60.5453 212.602 60.6792 212.699 60.8983C212.821 61.1661 212.748 61.4704 212.504 61.653C212.407 61.726 210.021 63.4667 207.136 64.903C206.503 65.2195 206.102 65.9133 206.077 66.7532C206.053 67.4592 206.321 68.3721 207.124 68.8468C208.086 69.4067 209.546 69.1389 211.238 68.1043C215.845 65.271 220.708 64.7275 222.95 64.6283C220.555 61.7985 212.143 53.2649 195.999 50.6858C195.67 50.6371 195.439 50.3206 195.487 49.992C195.536 49.6633 195.853 49.4321 196.181 49.4808C211.838 51.9706 220.278 59.7491 223.332 63.1968C222.099 53.25 219.629 47.1742 216.314 45.9995C215.28 45.6343 214.756 45.6952 214.61 45.8778C213.989 46.669 215.645 50.4058 217.568 53.4124C217.738 53.668 217.677 54.021 217.434 54.2158C217.191 54.4105 216.838 54.3983 216.618 54.1671C213.843 51.3796 205.919 44.2954 202.754 44.8796C202.34 44.9527 202.06 45.0987 202.036 45.2326C201.878 45.9995 204.361 48.2635 206.686 49.8094C206.942 49.9798 207.027 50.3085 206.893 50.5763C206.759 50.844 206.455 50.9901 206.162 50.8927L206.142 50.8865L206.099 50.8733L206.097 50.8727C205.501 50.6892 200.976 49.2948 197.155 48.7017C194.514 48.2879 190.813 47.9105 189.231 49.2373C188.72 49.6633 188.464 50.2598 188.452 51.051C188.415 53.2907 197.946 54.5444 204.398 54.6783C204.702 54.6783 204.957 54.9217 204.994 55.2261C205.03 55.5304 204.824 55.8103 204.531 55.8834C202.073 56.4798 198.348 57.8918 198.141 59.0603C198.068 59.4377 198.53 59.8393 198.92 60.095C202.937 62.7972 211.92 60.594 212.017 60.5697C212.066 60.5697 212.115 60.5575 212.163 60.5575L212.151 60.5453Z" fill="url(#paint0_linear_975_2570)"/>
<path fill-rule="evenodd" clip-rule="evenodd" d="M245.357 189.206C245.175 189.194 245.016 189.097 244.907 188.95C244.858 188.877 239.868 181.708 231.25 178.336C227.391 176.827 226.381 174.794 226.198 173.346C226.003 171.775 226.77 170.181 228.194 169.171C229.558 168.209 231.176 168.026 232.515 168.696C234.22 169.548 235.924 170.254 237.299 170.765C234.244 167.856 229.205 162.342 228.925 157.278C228.839 155.72 229.265 154.698 230.191 154.235C231.931 153.347 235.096 155.014 237.445 156.56C236.277 154.795 234.767 152.434 233.404 149.999C229.521 143.037 228.645 138.923 230.726 137.401C231.931 136.525 233.185 136.232 234.475 136.525C237.737 137.267 240.452 141.625 242.448 145.337C243.945 148.125 245.345 151.411 246.282 153.785C246.367 151.107 246.794 147.869 248.291 147.151C249.045 146.786 249.897 147.029 250.835 147.881C254.036 150.79 253.586 161.392 253.05 167.418C254.438 164.472 256.47 161.076 258.442 161.076H258.479C259.599 161.1 260.451 162.062 261.072 164.01C262.788 169.402 257.688 177.886 246.319 188.537C246.275 188.576 246.234 188.613 246.195 188.648L246.119 188.718C246.068 188.764 246.023 188.806 245.983 188.843C245.885 189.069 245.668 189.206 245.43 189.206H245.357ZM245.15 187.229C246.209 182.807 248.989 166.393 238.297 146.311C238.139 146.019 238.249 145.642 238.553 145.483C238.845 145.325 239.222 145.435 239.381 145.739C246.039 158.24 247.487 169.268 247.536 176.303C247.566 181.027 247.003 184.601 246.55 186.692C256.677 176.983 261.423 169.097 259.927 164.411C259.501 163.072 258.99 162.33 258.467 162.33H258.455C256.787 162.33 254.012 167.856 252.563 171.8C252.454 172.092 252.137 172.262 251.845 172.177C251.541 172.104 251.346 171.812 251.395 171.508C252.137 166.213 253.33 151.813 250.044 148.819C249.739 148.551 249.204 148.113 248.838 148.283C247.755 148.806 247.341 153.334 247.573 157.23C247.585 157.534 247.378 157.802 247.086 157.863C246.794 157.923 246.489 157.753 246.392 157.473L246.372 157.417C246.137 156.766 243.923 150.63 241.401 145.946C239.673 142.732 237.044 138.375 234.22 137.742C233.27 137.523 232.369 137.742 231.456 138.411C228.718 140.408 235.546 152.008 240.488 158.848C240.671 159.092 240.634 159.433 240.415 159.652C240.196 159.859 239.843 159.871 239.612 159.676C237.044 157.57 232.357 154.527 230.75 155.343C230.3 155.574 230.093 156.207 230.154 157.242C230.51 163.681 239.785 171.403 240.352 171.875L240.353 171.876L240.379 171.897C240.61 172.08 240.671 172.396 240.537 172.652C240.403 172.907 240.099 173.029 239.819 172.956L239.802 172.951C239.485 172.854 235.762 171.718 231.98 169.816C231.615 169.633 231.225 169.548 230.811 169.548L230.824 169.524C230.191 169.524 229.521 169.743 228.912 170.169C227.853 170.911 227.281 172.068 227.427 173.2C227.622 174.77 229.144 176.194 231.712 177.192C238.782 179.959 243.41 185.042 245.15 187.229Z" fill="url(#paint1_linear_975_2570)"/>
<path fill-rule="evenodd" clip-rule="evenodd" d="M289.774 145.617C289.774 147.65 291.429 149.305 293.462 149.305C295.495 149.305 297.15 147.65 297.15 145.617C297.15 143.584 295.495 141.929 293.462 141.929C291.429 141.929 289.774 143.584 289.774 145.617ZM290.991 145.617C290.991 144.254 292.099 143.146 293.462 143.146C294.825 143.146 295.933 144.254 295.933 145.617C295.933 146.981 294.825 148.088 293.462 148.088C292.099 148.088 290.991 146.981 290.991 145.617Z" fill="url(#paint2_linear_975_2570)"/>
<path fill-rule="evenodd" clip-rule="evenodd" d="M295.239 155.562C292.999 155.562 291.076 154.101 290.431 152.032C289.628 152.555 288.69 152.823 287.704 152.823C284.917 152.823 282.641 150.559 282.641 147.76C282.641 146.128 283.42 144.631 284.722 143.682C283.931 142.769 283.493 141.613 283.493 140.395C283.493 137.608 285.757 135.332 288.557 135.332C290.017 135.332 291.368 135.952 292.318 137.024C293.097 135.21 294.898 133.968 296.943 133.968C299.731 133.968 302.007 136.232 302.007 139.032C302.007 139.908 301.776 140.761 301.362 141.503C304.015 141.661 306.121 143.864 306.121 146.555C306.121 149.245 303.845 151.618 301.057 151.618C300.765 151.618 300.473 151.594 300.181 151.533C299.694 153.834 297.661 155.55 295.251 155.55L295.239 155.562ZM290.833 150.328C290.906 150.328 290.979 150.328 291.04 150.364C291.259 150.45 291.417 150.644 291.441 150.876C291.636 152.848 293.267 154.345 295.239 154.345C297.211 154.345 298.927 152.762 299.049 150.742C299.049 150.559 299.159 150.377 299.317 150.279C299.475 150.17 299.67 150.145 299.852 150.206C300.291 150.352 300.68 150.425 301.057 150.425C303.175 150.425 304.904 148.697 304.904 146.579C304.904 144.461 303.175 142.732 301.057 142.732C300.79 142.732 300.498 142.769 300.169 142.842C299.901 142.903 299.621 142.781 299.499 142.538C299.366 142.294 299.414 142.002 299.609 141.807C300.376 141.077 300.802 140.091 300.802 139.044C300.802 136.926 299.073 135.198 296.955 135.198C295.044 135.198 293.413 136.634 293.17 138.545C293.133 138.813 292.926 139.02 292.659 139.069C292.391 139.117 292.135 138.971 292.013 138.74C291.356 137.401 290.042 136.573 288.569 136.573C286.451 136.573 284.722 138.302 284.722 140.42C284.722 141.54 285.234 142.611 286.11 143.353C286.268 143.487 286.341 143.682 286.329 143.889C286.305 144.096 286.183 144.266 286 144.363C284.686 145.021 283.87 146.335 283.87 147.784C283.87 149.902 285.599 151.63 287.717 151.63C288.727 151.63 289.689 151.241 290.407 150.523C290.528 150.413 290.675 150.352 290.833 150.352V150.328Z" fill="url(#paint3_linear_975_2570)"/>
<path fill-rule="evenodd" clip-rule="evenodd" d="M200.697 180.661C200.697 182.694 202.353 184.349 204.385 184.349C206.418 184.349 208.074 182.694 208.074 180.661C208.074 178.628 206.418 176.973 204.385 176.973C202.353 176.973 200.697 178.628 200.697 180.661ZM201.914 180.661C201.914 179.298 203.022 178.19 204.385 178.19C205.749 178.19 206.856 179.298 206.856 180.661C206.856 182.024 205.749 183.132 204.385 183.132C203.022 183.132 201.914 182.024 201.914 180.661Z" fill="url(#paint4_linear_975_2570)"/>
<path fill-rule="evenodd" clip-rule="evenodd" d="M206.15 190.606C203.911 190.606 201.987 189.145 201.342 187.076C200.539 187.599 199.602 187.867 198.616 187.867C195.828 187.867 193.552 185.603 193.552 182.803C193.552 181.172 194.331 179.675 195.633 178.726C194.842 177.813 194.404 176.657 194.404 175.439C194.404 172.652 196.668 170.376 199.468 170.376C200.928 170.376 202.28 170.996 203.229 172.068C204.008 170.254 205.809 169.012 207.854 169.012C210.642 169.012 212.918 171.276 212.918 174.076C212.918 174.952 212.687 175.804 212.273 176.547C214.927 176.705 217.032 178.908 217.032 181.598C217.032 184.289 214.768 186.662 211.969 186.662C211.677 186.662 211.384 186.638 211.092 186.577C210.605 188.89 208.573 190.594 206.162 190.594L206.15 190.606ZM201.744 185.372C201.817 185.372 201.878 185.372 201.951 185.408C202.17 185.494 202.328 185.688 202.353 185.92C202.547 187.891 204.178 189.389 206.15 189.389C208.122 189.389 209.839 187.806 209.96 185.786C209.96 185.603 210.07 185.421 210.228 185.323C210.386 185.214 210.581 185.189 210.764 185.25C211.19 185.396 211.591 185.469 211.969 185.469C214.087 185.469 215.815 183.741 215.815 181.623C215.815 179.505 214.087 177.776 211.969 177.776C211.701 177.776 211.409 177.813 211.08 177.886C210.812 177.947 210.532 177.825 210.411 177.582C210.289 177.338 210.325 177.046 210.52 176.851C211.287 176.121 211.713 175.135 211.713 174.088C211.713 171.97 209.985 170.242 207.867 170.242C205.956 170.242 204.324 171.678 204.081 173.589C204.045 173.857 203.838 174.064 203.582 174.112C203.314 174.161 203.059 174.015 202.937 173.784C202.28 172.445 200.965 171.617 199.492 171.617C197.374 171.617 195.646 173.346 195.646 175.464C195.646 176.583 196.157 177.655 197.033 178.397C197.192 178.531 197.265 178.726 197.24 178.933C197.216 179.14 197.094 179.31 196.912 179.407C195.597 180.065 194.781 181.379 194.781 182.828C194.781 184.946 196.51 186.674 198.628 186.674C199.638 186.674 200.6 186.285 201.318 185.567C201.44 185.457 201.586 185.396 201.744 185.396V185.372Z" fill="url(#paint5_linear_975_2570)"/>
<path d="M203.199 126.677L203.18 126.677H203.205L203.199 126.677Z" fill="url(#paint6_linear_975_2570)"/>
<path fill-rule="evenodd" clip-rule="evenodd" d="M202.28 123.975C202.28 125.375 203.424 126.507 204.811 126.507C206.211 126.507 207.343 125.375 207.343 123.975C207.343 122.575 206.211 121.443 204.811 121.443C203.412 121.443 202.28 122.575 202.28 123.975ZM203.497 123.987C203.497 123.257 204.093 122.673 204.811 122.673C205.542 122.673 206.126 123.257 206.126 123.987C206.126 124.717 205.542 125.302 204.811 125.302C204.081 125.302 203.497 124.717 203.497 123.987Z" fill="url(#paint7_linear_975_2570)"/>
<path fill-rule="evenodd" clip-rule="evenodd" d="M205.919 130.402C204.519 130.402 203.314 129.55 202.803 128.308C202.328 128.564 201.78 128.698 201.233 128.698C199.37 128.698 197.849 127.176 197.849 125.314C197.849 124.304 198.299 123.366 199.054 122.733C198.616 122.161 198.384 121.455 198.384 120.725C198.384 118.863 199.906 117.341 201.768 117.341C202.633 117.341 203.436 117.67 204.045 118.23C204.629 117.183 205.736 116.489 206.99 116.489C208.853 116.489 210.374 118.011 210.374 119.873C210.374 120.348 210.277 120.798 210.094 121.224C211.701 121.48 212.93 122.879 212.93 124.559C212.93 126.543 211.202 128.187 209.169 127.919C208.767 129.355 207.465 130.39 205.919 130.39V130.402ZM203.199 126.677C203.264 126.677 203.321 126.68 203.387 126.714C203.606 126.799 203.765 126.994 203.789 127.225C203.898 128.333 204.824 129.173 205.931 129.173C207.039 129.173 208.013 128.284 208.074 127.14C208.074 126.957 208.183 126.775 208.341 126.677C208.5 126.568 208.694 126.543 208.877 126.604C209.12 126.689 209.339 126.726 209.546 126.726C210.739 126.726 211.713 125.752 211.713 124.559C211.713 123.366 210.739 122.393 209.546 122.393C209.4 122.393 209.23 122.417 209.047 122.453C208.78 122.514 208.5 122.393 208.378 122.149C208.244 121.906 208.293 121.614 208.487 121.419C208.913 121.005 209.157 120.457 209.157 119.861C209.157 118.668 208.183 117.694 206.99 117.694C205.919 117.694 204.994 118.51 204.86 119.581C204.824 119.849 204.617 120.055 204.361 120.104C204.093 120.153 203.838 120.019 203.716 119.776C203.351 119.021 202.608 118.558 201.78 118.558C200.588 118.558 199.614 119.532 199.614 120.725C199.614 121.358 199.894 121.954 200.393 122.368C200.551 122.502 200.624 122.697 200.612 122.904C200.588 123.111 200.466 123.281 200.283 123.379C199.541 123.756 199.09 124.486 199.09 125.302C199.09 126.495 200.064 127.468 201.257 127.468C201.829 127.468 202.365 127.249 202.779 126.848C202.899 126.739 203.043 126.679 203.199 126.677Z" fill="url(#paint8_linear_975_2570)"/>
<path fill-rule="evenodd" clip-rule="evenodd" d="M177.205 208.962C177.205 210.361 178.349 211.493 179.737 211.493C181.136 211.493 182.268 210.361 182.268 208.962C182.268 207.562 181.136 206.43 179.737 206.43C178.337 206.43 177.205 207.562 177.205 208.962ZM178.422 208.974C178.422 208.243 179.018 207.659 179.737 207.659C180.467 207.659 181.051 208.243 181.051 208.974C181.051 209.704 180.467 210.288 179.737 210.288C179.006 210.288 178.422 209.704 178.422 208.974Z" fill="url(#paint9_linear_975_2570)"/>
<path fill-rule="evenodd" clip-rule="evenodd" d="M180.832 215.389C179.432 215.389 178.227 214.537 177.716 213.295C177.241 213.551 176.706 213.685 176.146 213.685C174.283 213.685 172.762 212.163 172.762 210.301C172.762 209.29 173.212 208.353 173.967 207.72C173.529 207.148 173.297 206.442 173.297 205.712C173.297 203.849 174.819 202.328 176.681 202.328C177.545 202.328 178.349 202.656 178.957 203.216C179.542 202.17 180.649 201.476 181.903 201.476C183.766 201.476 185.287 202.997 185.287 204.86C185.287 205.334 185.19 205.785 185.007 206.211C186.614 206.466 187.843 207.866 187.843 209.546C187.843 211.53 186.103 213.161 184.082 212.905C183.68 214.342 182.378 215.376 180.832 215.376V215.389ZM178.093 211.664C178.166 211.664 178.227 211.664 178.3 211.7C178.519 211.786 178.678 211.98 178.702 212.212C178.811 213.319 179.737 214.159 180.844 214.159C181.952 214.159 182.926 213.271 182.986 212.126C182.986 211.944 183.096 211.761 183.254 211.664C183.413 211.554 183.607 211.53 183.79 211.591C184.033 211.676 184.252 211.713 184.459 211.713C185.652 211.713 186.626 210.739 186.626 209.546C186.626 208.353 185.652 207.379 184.459 207.379C184.313 207.379 184.143 207.404 183.96 207.44C183.693 207.501 183.413 207.379 183.279 207.136C183.145 206.892 183.193 206.6 183.388 206.406C183.814 205.992 184.058 205.444 184.058 204.847C184.058 203.655 183.084 202.681 181.891 202.681C180.82 202.681 179.895 203.496 179.761 204.567C179.724 204.835 179.517 205.042 179.262 205.091C178.994 205.14 178.738 204.994 178.617 204.762C178.252 204.008 177.509 203.545 176.681 203.545C175.488 203.545 174.515 204.519 174.515 205.712C174.515 206.345 174.795 206.941 175.294 207.355C175.452 207.489 175.525 207.684 175.501 207.891C175.476 208.097 175.354 208.268 175.172 208.365C174.429 208.743 173.979 209.473 173.979 210.288C173.979 211.481 174.953 212.455 176.146 212.455C176.718 212.455 177.253 212.236 177.667 211.834C177.777 211.725 177.935 211.664 178.093 211.664Z" fill="url(#paint10_linear_975_2570)"/>
<path fill-rule="evenodd" clip-rule="evenodd" d="M231.079 77.8543C231.079 79.2541 232.223 80.3861 233.611 80.3861C235.011 80.3861 236.143 79.2541 236.143 77.8543C236.143 76.4545 235.011 75.3225 233.611 75.3225C232.211 75.3225 231.079 76.4545 231.079 77.8543ZM232.296 77.8665C232.296 77.1361 232.893 76.5518 233.611 76.5518C234.341 76.5518 234.926 77.1361 234.926 77.8665C234.926 78.5968 234.341 79.1811 233.611 79.1811C232.881 79.1811 232.296 78.5968 232.296 77.8665Z" fill="url(#paint11_linear_975_2570)"/>
<path fill-rule="evenodd" clip-rule="evenodd" d="M234.706 84.2812C233.307 84.2812 232.102 83.4292 231.59 82.1876C231.116 82.4432 230.568 82.5771 230.02 82.5771C228.158 82.5771 226.636 81.0556 226.636 79.1932C226.636 78.1829 227.087 77.2457 227.841 76.6127C227.403 76.0406 227.172 75.3346 227.172 74.6043C227.172 72.7419 228.693 71.2204 230.556 71.2204C231.42 71.2204 232.223 71.5491 232.832 72.109C233.416 71.0622 234.524 70.3683 235.778 70.3683C237.64 70.3683 239.161 71.8899 239.161 73.7522C239.161 74.2269 239.064 74.6773 238.882 75.1034C240.488 75.359 241.718 76.7588 241.718 78.4386C241.718 80.4226 239.989 82.0659 237.956 81.7981C237.555 83.2344 236.252 84.2691 234.706 84.2691V84.2812ZM231.978 80.5565C232.046 80.5566 232.105 80.5582 232.175 80.593C232.394 80.6782 232.552 80.873 232.576 81.1043C232.686 82.212 233.599 83.0518 234.719 83.0518C235.838 83.0518 236.8 82.1633 236.861 81.0191C236.861 80.8365 236.97 80.6539 237.129 80.5565C237.287 80.447 237.482 80.4226 237.664 80.4835C237.908 80.5687 238.127 80.6052 238.346 80.6052C239.539 80.6052 240.513 79.6314 240.513 78.4386C240.513 77.2457 239.539 76.2719 238.346 76.2719C238.2 76.2719 238.029 76.2962 237.847 76.3327C237.579 76.3936 237.299 76.2719 237.165 76.0284C237.031 75.785 237.08 75.4929 237.275 75.2981C237.701 74.8843 237.944 74.3365 237.944 73.7401C237.944 72.5472 236.97 71.5734 235.778 71.5734C234.706 71.5734 233.781 72.3889 233.647 73.4601C233.611 73.7279 233.404 73.9348 233.148 73.9835C232.881 74.0322 232.625 73.8861 232.503 73.6549C232.138 72.9002 231.396 72.4376 230.568 72.4376C229.375 72.4376 228.401 73.4114 228.401 74.6043C228.401 75.2372 228.681 75.8337 229.18 76.2475C229.338 76.3814 229.412 76.5762 229.387 76.7831C229.363 76.9901 229.241 77.1605 229.059 77.2578C228.316 77.6352 227.866 78.3655 227.866 79.1811C227.866 80.3739 228.839 81.3477 230.032 81.3477C230.604 81.3477 231.14 81.1286 231.554 80.7269C231.675 80.6179 231.82 80.5571 231.978 80.5565Z" fill="url(#paint12_linear_975_2570)"/>
<path d="M291.448 98.0724L291.429 98.0724H291.454L291.448 98.0724Z" fill="url(#paint13_linear_975_2570)"/>
<path fill-rule="evenodd" clip-rule="evenodd" d="M290.528 95.3702C290.528 96.77 291.673 97.902 293.06 97.902C294.46 97.902 295.592 96.77 295.592 95.3702C295.592 93.9703 294.46 92.8383 293.06 92.8383C291.66 92.8383 290.528 93.9703 290.528 95.3702ZM291.746 95.3823C291.746 94.652 292.342 94.0677 293.06 94.0677C293.791 94.0677 294.375 94.652 294.375 95.3823C294.375 96.1127 293.791 96.6969 293.06 96.6969C292.33 96.6969 291.746 96.1127 291.746 95.3823Z" fill="url(#paint14_linear_975_2570)"/>
<path fill-rule="evenodd" clip-rule="evenodd" d="M294.168 101.797C292.768 101.797 291.563 100.945 291.052 99.7035C290.577 99.9591 290.042 100.093 289.482 100.093C287.619 100.093 286.098 98.5715 286.098 96.7091C286.098 95.6988 286.548 94.7615 287.303 94.1286C286.865 93.5565 286.633 92.8505 286.633 92.1202C286.633 90.2578 288.155 88.7363 290.017 88.7363C290.881 88.7363 291.685 89.0649 292.293 89.6249C292.878 88.578 293.985 87.8842 295.239 87.8842C297.101 87.8842 298.623 89.4058 298.623 91.2681C298.623 91.7428 298.526 92.1932 298.343 92.6192C299.95 92.8748 301.179 94.2747 301.179 95.9544C301.179 97.9385 299.451 99.5696 297.418 99.314C297.016 100.75 295.702 101.785 294.168 101.785V101.797ZM291.448 98.0724C291.515 98.0727 291.581 98.0756 291.636 98.1089C291.855 98.1941 292.013 98.3889 292.038 98.6202C292.147 99.7278 293.06 100.568 294.18 100.568C295.3 100.568 296.262 99.6791 296.322 98.5349C296.322 98.3524 296.432 98.1698 296.59 98.0724C296.748 97.9629 296.943 97.9385 297.126 97.9994C297.369 98.0846 297.588 98.1211 297.807 98.1211C299 98.1211 299.974 97.1473 299.974 95.9544C299.974 94.7615 299 93.7878 297.807 93.7878C297.661 93.7878 297.491 93.8121 297.308 93.8486C297.041 93.9095 296.761 93.7878 296.639 93.5443C296.517 93.3009 296.554 93.0087 296.748 92.814C297.174 92.4001 297.418 91.8524 297.418 91.2559C297.418 90.0631 296.444 89.0893 295.251 89.0893C294.18 89.0893 293.255 89.9048 293.121 90.976C293.085 91.2438 292.878 91.4507 292.61 91.4994C292.33 91.5481 292.087 91.402 291.965 91.1707C291.6 90.4161 290.857 89.9535 290.029 89.9535C288.837 89.9535 287.863 90.9273 287.863 92.1202C287.863 92.7531 288.143 93.3496 288.642 93.7634C288.8 93.8973 288.873 94.0921 288.861 94.299C288.837 94.5059 288.715 94.6763 288.532 94.7737C287.79 95.1511 287.339 95.8814 287.339 96.6969C287.339 97.8898 288.313 98.8636 289.506 98.8636C290.078 98.8636 290.614 98.6445 291.028 98.2428C291.136 98.1345 291.292 98.0738 291.448 98.0724Z" fill="url(#paint15_linear_975_2570)"/>
<path fill-rule="evenodd" clip-rule="evenodd" d="M261.221 129.302C261.207 129.288 261.194 129.273 261.181 129.258C261.166 129.237 261.153 129.215 261.14 129.193C261.037 129.019 261.026 128.801 261.119 128.612L261.128 128.589C261.465 127.693 264.12 120.647 266.829 116.379C269.799 111.718 279.853 110.853 280.279 110.829C280.523 110.817 280.73 110.926 280.852 111.121C280.973 111.316 280.973 111.559 280.852 111.754C280.842 111.771 280.625 112.122 280.266 112.705L280.246 112.737L280.243 112.743L280.236 112.753L280.235 112.755L280.224 112.772C278.753 115.159 275.058 121.152 273.146 124.328C270.578 128.6 262.094 129.452 261.729 129.489H261.656L261.662 129.489C261.635 129.489 261.608 129.487 261.582 129.483C261.489 129.469 261.399 129.435 261.315 129.379C261.303 129.371 261.291 129.362 261.28 129.353C261.269 129.345 261.258 129.336 261.248 129.327C261.239 129.318 261.23 129.31 261.221 129.302ZM263.018 128.068C265.47 127.647 270.425 126.481 272.087 123.695C273.746 120.93 276.743 116.057 278.472 113.254C271.519 117.416 265.249 125.14 263.018 128.068ZM263.856 125.038C266.788 121.457 271.812 115.941 277.433 112.457C274.303 113.037 269.572 114.33 267.852 117.037C266.395 119.327 264.927 122.517 263.856 125.038ZM278.746 112.238C278.773 112.268 278.797 112.302 278.819 112.338C278.861 112.411 278.887 112.488 278.897 112.565L279.134 112.182C279.077 112.19 279.018 112.198 278.958 112.207C278.889 112.217 278.818 112.227 278.746 112.238Z" fill="url(#paint16_linear_975_2570)"/>
<path fill-rule="evenodd" clip-rule="evenodd" d="M144.183 168.767C144.197 168.784 144.212 168.801 144.228 168.816C144.857 169.581 149.826 175.512 154.528 175.512V175.5H154.723C159.397 175.33 169.366 175.111 169.463 175.111C169.694 175.111 169.901 174.977 169.999 174.77C170.096 174.563 170.072 174.319 169.926 174.137L169.914 174.122C169.512 173.608 163.433 165.848 157.936 165.884C152.741 165.932 145.131 167.632 144.536 167.765L144.51 167.771C144.303 167.819 144.145 167.965 144.072 168.16C144.004 168.353 144.031 168.555 144.142 168.71C144.155 168.73 144.168 168.749 144.183 168.767ZM146.081 169.081C147.774 170.915 151.417 174.374 154.674 174.283C157.889 174.166 163.591 174.022 166.888 173.946C159.62 170.399 149.749 169.359 146.081 169.081ZM167.748 173.927L168.173 173.918C168.095 173.827 168.011 173.732 167.923 173.632C167.913 173.671 167.899 173.71 167.881 173.747C167.846 173.817 167.801 173.878 167.748 173.927ZM167.029 172.655C161.021 169.826 153.622 168.622 149.023 168.119C151.729 167.639 155.224 167.126 157.948 167.101H157.997C161.194 167.101 164.851 170.361 167.029 172.655Z" fill="url(#paint17_linear_975_2570)"/>
<path fill-rule="evenodd" clip-rule="evenodd" d="M323.454 173.76C323.211 173.76 322.968 173.723 322.712 173.65C320.496 173.018 319.815 170.925 319.682 169.025C318.808 169.917 318.344 170.181 317.977 170.181L317.989 170.157H317.867C317.6 170.12 317.381 169.937 317.283 169.682C317.126 169.26 317.484 168.226 318.166 166.831L318.159 166.833L317.868 166.906L317.721 166.943C315.689 167.479 313.924 167.941 312.901 167.235C312.475 166.943 312.219 166.493 312.159 165.896C311.891 163.486 315.798 161.928 317.38 161.405C316.808 159.445 315.311 153.663 316.942 151.119C317.393 150.413 318.062 149.987 318.89 149.878C321.905 149.502 323.835 153.016 324.877 155.79C324.96 155.705 325.045 155.626 325.133 155.552C325.095 155.45 325.084 155.336 325.11 155.221C325.67 152.495 326.047 148.295 325.146 147.48C324.806 147.175 324.599 147.114 324.538 147.127C324.477 147.2 324.453 147.723 324.879 148.161C325.122 148.405 325.122 148.782 324.879 149.025C324.635 149.269 324.258 149.269 324.014 149.025C323.199 148.21 323.041 146.944 323.674 146.287C324.112 145.824 324.939 145.666 325.95 146.579C327.498 147.976 326.764 152.964 326.411 154.898C326.791 154.813 327.182 154.814 327.569 154.905C328.291 155.083 328.862 155.555 329.104 156.174C330.929 154.799 334.186 152.824 336.26 154.381C336.625 154.649 337.72 155.477 337.465 156.426C337.319 156.925 336.832 157.266 336.138 157.339C335.578 157.388 334.835 157.266 334.568 156.718C334.422 156.414 334.543 156.049 334.835 155.903C335.103 155.769 335.432 155.854 335.602 156.085C335.761 156.158 336.15 156.134 336.284 156.061C336.265 156.053 336.236 156.022 336.189 155.969C336.089 155.857 335.902 155.649 335.529 155.367C333.861 154.122 330.138 156.824 328.755 158.031C328.718 158.073 328.68 158.114 328.64 158.155C328.618 158.177 328.594 158.202 328.568 158.229C331.829 158.124 336.171 158.413 337.404 160.285C337.757 160.833 338.012 161.745 337.209 163.048C335.079 166.456 328.798 165.835 326.583 165.495C326.656 167.369 326.631 171.824 324.842 173.273C324.44 173.601 323.966 173.772 323.454 173.772V173.76ZM325.755 161.697C326.404 160.876 327.008 160.11 327.506 159.493C330.894 159.291 335.459 159.561 336.381 160.954L336.382 160.956C336.469 161.091 336.732 161.505 336.174 162.403C334.112 165.694 326.443 164.243 326.061 164.17L326.047 164.168C325.865 164.119 325.67 164.18 325.524 164.302C325.378 164.423 325.305 164.606 325.317 164.801C325.499 167.174 325.317 171.301 324.063 172.323C323.893 172.469 323.6 172.64 323.053 172.481C321.063 171.908 320.81 169.448 320.9 167.685C322.013 166.398 323.555 164.49 325.755 161.697ZM317.517 165.755C317.974 165.636 318.438 165.516 318.905 165.406C320.226 162.972 322.157 159.883 324.025 157.023C323.105 154.284 321.384 150.795 319.048 151.083C318.573 151.143 318.233 151.363 317.977 151.764C316.662 153.834 318.074 159.567 318.732 161.612C318.78 161.77 318.768 161.94 318.695 162.086C318.622 162.232 318.488 162.342 318.33 162.391C316.65 162.878 313.242 164.326 313.4 165.762C313.435 166.101 313.56 166.193 313.613 166.232L313.619 166.237C314.191 166.627 315.92 166.176 317.441 165.775L317.515 165.755L317.517 165.755Z" fill="url(#paint18_linear_975_2570)"/>
<path fill-rule="evenodd" clip-rule="evenodd" d="M238.054 122.539C238.078 122.551 238.139 122.551 238.139 122.551L238.151 122.563C238.188 122.563 238.236 122.551 238.285 122.539C238.382 122.563 238.516 122.539 238.516 122.539L238.48 122.453C240.208 121.662 245.613 116.087 247.56 113.665C251.918 108.248 253.147 104.061 251.2 101.225C249.97 99.4235 248.437 98.4376 246.635 98.2915C243.276 98.0115 239.928 100.762 238.285 102.357C236.642 100.762 233.282 97.9994 229.935 98.2915C228.146 98.4376 226.6 99.4235 225.37 101.225C223.423 104.061 224.64 108.248 229.01 113.665C230.97 116.087 236.362 121.65 238.09 122.453L238.054 122.539ZM230.032 99.4966C230.154 99.4844 230.288 99.4844 230.41 99.4844V99.4722C233.562 99.4722 236.873 102.637 237.835 103.635C238.066 103.879 238.48 103.866 238.711 103.635C239.709 102.6 243.251 99.2288 246.514 99.4966C247.926 99.6183 249.155 100.422 250.177 101.907C250.835 102.856 251.017 104.012 250.725 105.449C249.484 111.547 240.147 119.739 238.273 121.212C236.398 119.739 227.074 111.547 225.821 105.449C225.529 104.025 225.711 102.868 226.368 101.907C227.379 100.422 228.62 99.6183 230.032 99.4966Z" fill="url(#paint19_linear_975_2570)"/>
<path fill-rule="evenodd" clip-rule="evenodd" d="M190.752 94.5668V94.4938C189.097 94.4938 183.619 92.181 182.512 91.6211C178.215 89.4666 176.243 87.1661 176.657 84.7681C176.925 83.2466 177.619 82.1511 178.738 81.5181C180.722 80.3983 183.498 81.0556 185.031 81.5912C185.64 80.0818 186.93 77.55 189.085 76.771C190.302 76.3327 191.58 76.5153 192.907 77.3065C195.001 78.5603 195.463 81.5668 194.282 86.2531C193.966 87.4947 192.177 93.0818 191.105 94.3233L191.166 94.372C191.166 94.372 191.057 94.4451 190.959 94.4694C190.886 94.5303 190.813 94.5668 190.752 94.5668ZM181.368 82.1389C180.637 82.1389 179.931 82.2606 179.347 82.5893C178.544 83.0397 178.057 83.8187 177.862 84.9872C177.74 85.6932 177.935 86.4114 178.471 87.1539C180.808 90.4039 188.537 92.8018 190.412 93.2887C191.264 91.5602 194.477 84.1352 193.54 80.24C193.321 79.3515 192.919 78.7307 192.298 78.3655C191.288 77.7569 190.375 77.623 189.511 77.9395C187.49 78.6698 186.297 81.6885 185.981 82.6015C185.932 82.7597 185.81 82.8814 185.664 82.9545C185.518 83.0275 185.348 83.0275 185.19 82.9666C184.581 82.7232 182.95 82.1511 181.38 82.1511L181.368 82.1389Z" fill="url(#paint20_linear_975_2570)"/>
<path fill-rule="evenodd" clip-rule="evenodd" d="M141.029 141.369C141.735 143.706 144.534 144.887 149.355 144.887L149.33 144.899H149.379C150.304 144.899 156.451 144.546 157.96 143.791L157.997 143.864C158.058 143.828 158.106 143.767 158.143 143.682C158.216 143.621 158.265 143.56 158.289 143.499L158.216 143.475C158.618 141.88 157.729 136.074 157.449 134.82C156.414 130.098 154.662 127.614 152.227 127.432C150.693 127.322 149.464 127.724 148.576 128.661C147.005 130.317 146.969 133.165 147.103 134.784C145.496 135.003 142.721 135.648 141.443 137.535C140.724 138.594 140.591 139.896 141.029 141.369ZM149.464 129.513C150.024 128.929 150.767 128.637 151.74 128.637L151.716 128.661C151.73 128.661 151.744 128.661 151.759 128.662L151.801 128.663C151.838 128.664 151.876 128.665 151.914 128.667C151.96 128.669 152.008 128.671 152.056 128.673C152.08 128.673 152.105 128.673 152.13 128.673C152.848 128.722 153.481 129.087 154.077 129.793C156.658 132.861 157.108 140.931 157.108 142.866C155.222 143.268 147.237 144.57 143.694 142.708C142.891 142.282 142.392 141.734 142.185 141.04C141.856 139.908 141.942 138.983 142.453 138.229C143.658 136.452 146.871 136.026 147.833 135.94C147.991 135.928 148.137 135.855 148.247 135.721C148.356 135.587 148.405 135.417 148.381 135.259C148.259 134.297 147.991 131.059 149.464 129.513Z" fill="url(#paint21_linear_975_2570)"/>
<path fill-rule="evenodd" clip-rule="evenodd" d="M309.797 208.122C308.056 208.122 305.89 207.185 303.309 205.31C302.567 204.774 297.783 200.891 297.004 199.394L296.931 199.431C296.931 199.431 296.895 199.297 296.931 199.2C296.907 199.102 296.895 199.029 296.931 198.968L297.004 198.993C297.613 197.471 301.727 193.284 302.689 192.42C306.292 189.194 309.164 188.208 311.246 189.474C312.56 190.277 313.315 191.336 313.497 192.614C313.802 194.878 312.171 197.203 311.112 198.445C312.292 199.565 314.167 201.707 314.106 203.983C314.07 205.273 313.424 206.406 312.207 207.343C311.55 207.854 310.759 208.11 309.858 208.11L309.797 208.122ZM298.233 199.139C299.524 200.575 305.245 206.296 309.213 206.856C310.114 206.978 310.844 206.832 311.416 206.393C312.353 205.675 312.816 204.884 312.84 203.959C312.901 201.817 310.54 199.589 309.809 198.956C309.688 198.847 309.615 198.688 309.602 198.53C309.602 198.36 309.651 198.201 309.761 198.08C310.418 197.374 312.536 194.915 312.244 192.785C312.122 191.872 311.574 191.129 310.564 190.521C309.943 190.143 309.213 190.07 308.324 190.289C304.441 191.263 299.353 197.556 298.221 199.126L298.233 199.139Z" fill="url(#paint22_linear_975_2570)"/>
<path d="M288.045 125.375C288.167 125.509 288.337 125.57 288.496 125.57L288.484 125.557C288.63 125.557 288.776 125.509 288.897 125.399C291.685 122.843 294.691 120.713 297.844 119.07C298.136 118.923 298.258 118.546 298.1 118.254C297.954 117.962 297.588 117.84 297.284 117.998C294.034 119.69 290.942 121.881 288.082 124.511C287.838 124.742 287.814 125.131 288.045 125.375Z" fill="url(#paint23_linear_975_2570)"/>
<path d="M265.928 174.526H265.855C265.527 174.49 265.283 174.186 265.32 173.845C265.344 173.601 268.338 149.245 281.631 131.656C281.837 131.388 282.215 131.339 282.483 131.534C282.75 131.741 282.799 132.118 282.604 132.386C269.777 149.366 266.682 172.792 266.53 173.937L266.525 173.979C266.488 174.283 266.22 174.514 265.916 174.514L265.928 174.526Z" fill="url(#paint24_linear_975_2570)"/>
<path d="M232.515 190.009C232.625 190.229 232.832 190.35 233.063 190.35V190.362C233.161 190.362 233.246 190.338 233.331 190.302C233.635 190.156 233.757 189.79 233.611 189.486C232.661 187.538 231.603 185.652 230.458 183.887C230.276 183.607 229.898 183.522 229.618 183.704C229.338 183.887 229.253 184.264 229.436 184.544C230.556 186.26 231.59 188.098 232.515 190.009Z" fill="url(#paint25_linear_975_2570)"/>
<path d="M223.983 177.35C223.824 177.35 223.666 177.289 223.544 177.168C214.695 168.112 203.582 164.107 194.648 160.893C193.114 160.346 191.641 159.81 190.241 159.275C187.88 158.374 185.859 157.242 184.24 155.915C183.985 155.696 183.948 155.319 184.155 155.063C184.374 154.807 184.751 154.771 185.007 154.978C186.529 156.219 188.428 157.29 190.667 158.142C191.864 158.604 193.124 159.057 194.423 159.524L195.105 159.769C204.139 163.028 215.383 167.084 224.409 176.316C224.64 176.559 224.64 176.936 224.409 177.18C224.287 177.302 224.141 177.35 223.983 177.35Z" fill="url(#paint26_linear_975_2570)"/>
<path d="M180.808 151.849C180.917 152.056 181.124 152.166 181.343 152.166C181.441 152.166 181.538 152.142 181.635 152.093C181.928 151.935 182.037 151.557 181.879 151.265C179.992 147.816 180.626 144.609 180.693 144.271C180.696 144.253 180.698 144.242 180.698 144.242C180.771 143.925 180.576 143.597 180.248 143.511C179.931 143.426 179.603 143.621 179.517 143.95L179.516 143.955C179.464 144.179 178.614 147.835 180.808 151.849Z" fill="url(#paint27_linear_975_2570)"/>
<path d="M292.598 81.4816C292.44 81.4816 292.269 81.4208 292.147 81.2869C291.916 81.0434 291.94 80.6539 292.184 80.4226C295.276 77.5865 297.588 74.5313 299.463 70.7944C299.609 70.4901 299.974 70.3683 300.278 70.5266C300.583 70.6727 300.704 71.0378 300.546 71.3421C298.635 75.1642 296.176 78.4264 293.012 81.3234C292.89 81.4329 292.744 81.4816 292.598 81.4816Z" fill="url(#paint28_linear_975_2570)"/>
<path d="M256.288 117C256.373 117.037 256.446 117.049 256.519 117.049L256.507 117.037C256.738 117.037 256.97 116.891 257.067 116.659C259.087 111.632 261.802 107.068 265.149 103.087C270.809 96.3561 276.749 92.5584 282.495 88.8945C283.7 88.1277 284.893 87.3608 286.049 86.594C286.329 86.4114 286.402 86.034 286.219 85.7541C286.037 85.4741 285.66 85.4011 285.38 85.5837C284.383 86.2448 283.367 86.8969 282.342 87.5557L282.332 87.5622L281.85 87.8721C276.019 91.5846 270.006 95.431 264.224 102.308C260.804 106.398 258.016 111.072 255.947 116.209C255.825 116.526 255.971 116.879 256.288 117Z" fill="url(#paint29_linear_975_2570)"/>
<path d="M252.539 136.792C252.21 136.792 251.942 136.537 251.93 136.208L251.93 136.165C251.922 135.731 251.864 132.408 252.734 127.529C252.794 127.201 253.111 126.982 253.44 127.042C253.768 127.103 253.987 127.42 253.926 127.748C253.062 132.605 253.131 135.952 253.135 136.161L253.135 136.172C253.135 136.512 252.88 136.792 252.551 136.805H252.527L252.539 136.792Z" fill="url(#paint30_linear_975_2570)"/>
<path d="M289.944 185.859C290.054 186.066 290.273 186.187 290.492 186.187L290.48 186.212C290.577 186.212 290.675 186.2 290.76 186.151C296.834 183.083 304.027 181.842 312.134 182.463C318.33 182.937 323.637 183.777 328.323 184.532C341.737 186.674 349.844 187.965 357.707 177.338C357.902 177.07 357.841 176.681 357.573 176.486C357.306 176.279 356.928 176.34 356.721 176.608C349.308 186.638 341.482 185.396 328.506 183.315L327.9 183.219L327.899 183.219C323.338 182.499 318.197 181.688 312.219 181.233C303.894 180.588 296.481 181.866 290.212 185.043C289.908 185.189 289.798 185.554 289.944 185.859Z" fill="url(#paint31_linear_975_2570)"/>
<path d="M279.914 195.219C279.817 195.219 279.707 195.195 279.61 195.134C279.318 194.964 279.22 194.598 279.391 194.306C279.44 194.221 280.669 192.14 283.456 189.632C283.712 189.413 284.089 189.425 284.321 189.681C284.54 189.936 284.528 190.314 284.272 190.545C281.643 192.919 280.45 194.903 280.438 194.927C280.328 195.122 280.121 195.231 279.914 195.231V195.219Z" fill="url(#paint32_linear_975_2570)"/>
<path fill-rule="evenodd" clip-rule="evenodd" d="M327.143 131.132H330.393L330.38 131.12C330.721 131.12 330.989 130.852 330.989 130.511C330.989 130.171 330.721 129.903 330.38 129.903H327.13C325.986 129.903 324.063 128.917 323.54 127.809C323.345 127.383 323.394 127.03 323.698 126.665C324.538 125.655 327.958 127.675 330.003 129.355C330.21 129.526 330.514 129.55 330.733 129.392C330.965 129.233 331.062 128.953 330.977 128.698L327.287 117.144L336.471 112.701L339.23 122.052C337.696 121.565 335.055 120.932 333.533 121.735C332.937 122.052 332.547 122.563 332.401 123.22C332.133 124.413 332.62 125.107 333.083 125.484C334.714 126.823 338.341 126.129 340.398 125.217C340.703 125.083 340.836 124.717 340.703 124.413C340.569 124.109 340.203 123.975 339.899 124.109C337.672 125.095 334.787 125.314 333.85 124.547C333.667 124.401 333.436 124.121 333.582 123.488C333.655 123.184 333.813 122.965 334.093 122.819C335.468 122.1 338.767 123.135 339.924 123.598C340.13 123.695 340.386 123.646 340.556 123.488C340.727 123.33 340.788 123.086 340.727 122.867L336.491 108.541C336.442 108.37 336.321 108.236 336.162 108.163C336.004 108.09 335.809 108.09 335.651 108.163L325.232 113.044C324.964 113.166 324.818 113.482 324.915 113.775L325.879 116.792C325.868 116.901 325.886 117.015 325.938 117.122C325.963 117.172 325.993 117.218 326.028 117.258L329.224 127.261C327.277 125.898 324.16 124.218 322.761 125.898C322.164 126.616 322.042 127.493 322.444 128.333C323.187 129.915 325.572 131.132 327.143 131.132ZM336.121 111.516L326.912 115.97L326.254 113.909L335.542 109.551L336.121 111.516Z" fill="url(#paint33_linear_975_2570)"/>
<path fill-rule="evenodd" clip-rule="evenodd" d="M350.623 126.263H352.777V126.251C353.118 126.251 353.386 125.983 353.386 125.643C353.386 125.411 353.252 125.204 353.057 125.107C353.068 125.102 353.079 125.094 353.088 125.087C353.101 125.078 353.111 125.07 353.118 125.07C353.35 124.912 353.447 124.632 353.362 124.377L350.977 116.911L356.679 114.153L358.328 119.739C357.257 119.435 355.711 119.155 354.762 119.654C354.311 119.897 354.019 120.275 353.909 120.774C353.751 121.467 353.946 122.076 354.433 122.478C355.577 123.415 358.072 122.952 359.484 122.332C359.789 122.198 359.923 121.833 359.789 121.528C359.74 121.394 359.643 121.297 359.521 121.236C359.557 121.212 359.606 121.188 359.643 121.151C359.813 120.993 359.874 120.749 359.813 120.53L357.013 111.06C356.965 110.89 356.843 110.756 356.685 110.683C356.526 110.61 356.332 110.61 356.173 110.683L349.284 113.909C349.016 114.03 348.87 114.347 348.967 114.639L349.588 116.583C349.584 116.682 349.603 116.783 349.649 116.879C349.655 116.891 349.662 116.903 349.669 116.915C349.673 116.922 349.677 116.929 349.681 116.935L349.693 116.953L349.697 116.959L349.706 116.973L349.717 116.987L351.633 122.989C350.282 122.137 348.493 121.37 347.58 122.466C347.129 123.001 347.044 123.658 347.336 124.291C347.86 125.423 349.503 126.263 350.623 126.263ZM356.329 112.968L350.602 115.737L350.294 114.773L356.064 112.071L356.329 112.968ZM348.505 123.245C348.566 123.172 348.675 123.135 348.821 123.135C349.552 123.135 351.158 124.036 352.388 125.046H350.623C349.929 125.046 348.736 124.438 348.432 123.78C348.335 123.573 348.359 123.427 348.505 123.245ZM355.334 120.737C355.516 120.64 355.772 120.603 356.076 120.603H356.088C356.94 120.603 358.145 120.92 358.961 121.236C357.573 121.845 355.76 121.991 355.212 121.541C355.139 121.48 355.029 121.382 355.102 121.041C355.127 120.895 355.2 120.81 355.334 120.737Z" fill="url(#paint34_linear_975_2570)"/>
<path fill-rule="evenodd" clip-rule="evenodd" d="M161.344 115.308H163.511C163.852 115.308 164.12 115.041 164.12 114.7C164.12 114.468 163.986 114.262 163.791 114.164C163.795 114.162 163.799 114.16 163.802 114.157C163.807 114.154 163.811 114.15 163.815 114.146C163.827 114.137 163.837 114.128 163.852 114.128C164.083 113.969 164.18 113.689 164.095 113.434L161.706 105.952L167.397 103.2L169.049 108.796C167.978 108.492 166.432 108.212 165.483 108.711C165.032 108.954 164.74 109.332 164.631 109.831C164.472 110.525 164.667 111.133 165.154 111.535C166.298 112.472 168.794 112.01 170.206 111.389C170.51 111.255 170.644 110.89 170.51 110.585C170.461 110.452 170.364 110.354 170.242 110.293C170.252 110.287 170.263 110.28 170.275 110.273C170.305 110.255 170.337 110.235 170.364 110.208C170.534 110.05 170.595 109.806 170.534 109.587L167.735 100.117C167.686 99.9469 167.564 99.813 167.406 99.74C167.236 99.667 167.053 99.667 166.895 99.74L160.005 102.966C159.737 103.087 159.591 103.404 159.689 103.696L160.309 105.639C160.307 105.734 160.326 105.832 160.37 105.924C160.388 105.959 160.409 105.993 160.432 106.023L162.355 112.046C161.003 111.182 159.214 110.415 158.301 111.511C157.851 112.046 157.766 112.703 158.058 113.336C158.581 114.468 160.224 115.308 161.344 115.308ZM167.047 102.015L161.331 104.779L161.028 103.83L166.785 101.128L167.047 102.015ZM159.226 112.29C159.287 112.217 159.397 112.18 159.543 112.18C160.273 112.18 161.88 113.081 163.109 114.091H161.344C160.663 114.091 159.458 113.47 159.153 112.825C159.056 112.618 159.08 112.472 159.226 112.29ZM166.043 109.782C166.225 109.685 166.481 109.648 166.785 109.648H166.797C167.649 109.648 168.855 109.965 169.67 110.281C168.282 110.89 166.469 111.036 165.921 110.585C165.848 110.525 165.738 110.427 165.811 110.086C165.836 109.94 165.909 109.855 166.043 109.782Z" fill="url(#paint35_linear_975_2570)"/>
<path fill-rule="evenodd" clip-rule="evenodd" d="M367.713 149.512L363.642 150.696C363.479 151.746 362.802 155.434 360.917 160.073C361.888 159.582 363.271 159.116 365.023 159.116H372.253C372.509 159.116 372.74 159.275 372.825 159.53C372.91 159.774 372.825 160.041 372.63 160.212L372.625 160.216C372.342 160.436 367.501 164.204 363.404 164.204V164.192C363.075 164.192 362.747 164.168 362.43 164.119C361.367 163.94 360.471 163.463 359.759 162.7C358.934 164.432 357.943 166.244 356.758 168.063C356.636 168.245 356.441 168.343 356.247 168.343L356.259 168.331C356.149 168.331 356.027 168.294 355.93 168.233C355.65 168.051 355.565 167.673 355.747 167.393C357.672 164.441 359.074 161.476 360.083 158.857C358.563 157.956 354.101 155.142 353.386 152.665C352.588 149.884 353.7 145.721 353.762 145.487L353.763 145.483C353.812 145.276 353.97 145.118 354.177 145.057C354.372 144.996 354.591 145.045 354.749 145.179L354.759 145.188C354.969 145.373 357.56 147.657 359.825 151.423C360.654 152.806 361.102 154.094 361.333 155.192C362.079 152.684 362.394 150.875 362.478 150.315C360.999 147.786 355.369 137.645 358.973 135.234C360.056 134.516 361.042 134.346 361.919 134.723C362.686 135.064 363.197 135.758 363.526 136.464C363.927 135.636 364.536 134.76 365.461 134.297C366.398 133.834 367.457 133.895 368.614 134.467C369.77 135.04 370.573 135.928 370.89 137.024C371.097 137.766 371.072 138.521 370.951 139.19C371.742 138.703 372.703 138.338 373.592 138.557C374.517 138.789 375.174 139.58 375.527 140.907C377.039 146.535 368.341 149.312 367.734 149.506L367.713 149.512ZM364.552 147.717L367.433 138.813C367.542 138.496 367.36 138.143 367.043 138.046C366.727 137.937 366.374 138.119 366.276 138.436L363.416 147.302L362.552 140.481C362.503 140.152 362.199 139.921 361.87 139.957C361.541 140.006 361.298 140.31 361.347 140.639L362.189 147.272C359.841 142.717 357.956 137.369 359.643 136.245C360.142 135.916 360.592 135.746 360.969 135.746V135.721C361.14 135.721 361.286 135.758 361.432 135.819C362.357 136.22 362.807 137.876 362.905 138.472C362.941 138.764 363.197 138.983 363.489 138.983C363.769 138.971 364.037 138.789 364.098 138.496C364.231 137.827 364.828 135.94 365.996 135.368C366.581 135.076 367.25 135.137 368.054 135.539C368.942 135.989 369.478 136.573 369.697 137.34C370.129 138.818 369.202 140.486 369.078 140.711L369.077 140.713L369.075 140.715C369.068 140.728 369.064 140.736 369.064 140.736C368.893 141.004 368.967 141.345 369.21 141.54C369.466 141.734 369.819 141.71 370.026 141.479C370.537 140.943 372.216 139.47 373.276 139.738C373.75 139.86 374.103 140.359 374.335 141.223C375.552 145.775 367.494 148.295 367.335 148.344L364.723 149.104L369.843 145.301C370.111 145.094 370.172 144.716 369.965 144.449C369.758 144.181 369.38 144.132 369.113 144.327L364.552 147.717ZM354.567 152.324C354.08 150.62 354.433 148.173 354.713 146.81C355.65 147.747 357.306 149.573 358.791 152.044C360.215 154.418 360.385 156.475 360.336 157.583C358.389 156.39 355.054 154.04 354.567 152.324ZM360.519 161.733C361.067 162.378 361.761 162.768 362.625 162.914C365.157 163.34 368.431 161.563 370.33 160.334H365.023C362.759 160.334 361.213 161.234 360.519 161.733Z" fill="url(#paint36_linear_975_2570)"/>
<path fill-rule="evenodd" clip-rule="evenodd" d="M154.345 201.683C153.834 201.683 153.371 201.549 152.945 201.269C151.874 200.538 151.339 199.686 151.363 198.725C151.387 197.885 151.85 197.155 152.361 196.582C151.448 196.522 150.401 196.29 149.634 195.609C148.855 194.915 148.515 193.917 148.612 192.627C148.722 191.3 149.221 190.265 150.121 189.559C150.73 189.084 151.436 188.829 152.105 188.695C151.351 188.147 150.657 187.392 150.535 186.492C150.401 185.542 150.888 184.641 151.984 183.814C156.627 180.299 162.475 187.307 162.888 187.801L162.902 187.818L165.507 191.117C166.547 190.872 170.226 190.111 175.239 190.113C174.42 189.399 173.472 188.296 172.811 186.674L170.084 179.967C169.987 179.724 170.047 179.456 170.242 179.286C170.437 179.115 170.717 179.091 170.948 179.213C171.216 179.359 177.46 182.95 178.422 187.198C178.657 188.249 178.558 189.257 178.121 190.199C180.03 190.312 182.071 190.547 184.192 190.959C184.52 191.02 184.739 191.336 184.678 191.677C184.618 192.006 184.301 192.225 183.96 192.164C180.501 191.49 177.226 191.307 174.418 191.358C174.154 193.1 173.221 198.302 171.192 199.893C168.946 201.649 164.742 202.198 164.414 202.241L164.399 202.243H164.326V202.23C164.144 202.23 163.973 202.145 163.852 202.011C163.718 201.853 163.681 201.634 163.742 201.439L163.75 201.418C163.862 201.101 165.005 197.861 167.613 194.391C168.576 193.109 169.593 192.211 170.519 191.583C167.905 191.839 166.112 192.23 165.583 192.355C163.998 194.426 158.151 201.67 154.333 201.67L154.345 201.683ZM156.475 195.974L162.431 192.618L153.164 193.308H153.116V193.296C152.799 193.296 152.531 193.053 152.507 192.736C152.483 192.395 152.738 192.103 153.067 192.079L162.429 191.394L157.571 188.439C157.279 188.269 157.193 187.891 157.364 187.599C157.534 187.307 157.912 187.222 158.204 187.392L163.594 190.661L161.941 188.573L161.937 188.569C161.741 188.332 156.436 181.948 152.714 184.775C151.996 185.311 151.667 185.834 151.74 186.309C151.886 187.392 153.883 188.391 154.576 188.658C154.869 188.768 155.027 189.084 154.942 189.389C154.856 189.693 154.564 189.876 154.26 189.827C154.26 189.827 154.253 189.826 154.242 189.825C154.035 189.798 152.103 189.548 150.876 190.521C150.255 191.008 149.902 191.738 149.829 192.724C149.756 193.625 149.963 194.27 150.45 194.696C151.424 195.56 153.384 195.414 154.065 195.28H154.187L154.175 195.268C154.418 195.268 154.649 195.414 154.747 195.657C154.856 195.937 154.747 196.242 154.491 196.4C153.968 196.716 152.605 197.751 152.58 198.761C152.568 199.273 152.921 199.772 153.627 200.259C155.379 201.444 159.637 197.54 162.859 193.781L157.084 197.033C156.987 197.082 156.889 197.106 156.792 197.106H156.78C156.573 197.106 156.366 196.996 156.244 196.802C156.074 196.509 156.183 196.132 156.475 195.974ZM173.151 191.592C172.117 191.969 170.266 192.906 168.599 195.11C166.87 197.41 165.799 199.626 165.288 200.855C166.651 200.599 169.061 200.015 170.449 198.92C171.861 197.812 172.774 193.844 173.151 191.592ZM173.93 186.212L171.934 181.294V181.282C173.784 182.584 176.669 184.958 177.229 187.453C177.424 188.318 177.326 189.097 176.925 189.851C176.194 189.401 174.782 188.305 173.93 186.212Z" fill="url(#paint37_linear_975_2570)"/>
<path d="M220.136 155.172C220.404 155.672 220.867 156.572 221.305 157.607H221.317C222.449 160.297 223.338 163.863 219.881 163.377C217.032 162.975 201.208 149.585 209.729 148.368C214.756 147.65 217.957 151.168 220.136 155.172Z" fill="url(#paint38_linear_975_2570)"/>
<path d="M214.817 107.287C214.379 106.252 213.916 105.351 213.648 104.852C211.47 100.848 208.268 97.3299 203.241 98.0481C194.721 99.2653 210.545 112.655 213.393 113.056C216.85 113.543 215.961 109.977 214.829 107.287H214.817Z" fill="url(#paint39_linear_975_2570)"/>
<path d="M297.893 163.425C298.416 163.206 299.378 162.853 300.449 162.537V162.549C303.248 161.733 306.9 161.246 306.012 164.63C305.281 167.406 290.163 181.586 289.932 172.98C289.798 167.905 293.657 165.129 297.893 163.425Z" fill="url(#paint40_linear_975_2570)"/>
<path d="M311.404 117.098C310.333 117.414 309.371 117.767 308.848 117.986C304.612 119.69 300.753 122.466 300.887 127.541C301.118 136.147 316.236 121.967 316.967 119.191C317.855 115.807 314.204 116.294 311.404 117.11V117.098Z" fill="url(#paint41_linear_975_2570)"/>
<path d="M371.243 115.126C371.766 114.907 372.728 114.554 373.799 114.237V114.249C376.599 113.434 380.25 112.947 379.362 116.331C378.631 119.106 363.513 133.287 363.282 124.681C363.148 119.605 367.007 116.83 371.243 115.126Z" fill="url(#paint42_linear_975_2570)"/>
<path d="M202.742 155.659C202.535 155.16 202.304 154.71 202.17 154.466C201.099 152.507 199.541 150.79 197.094 151.143C192.931 151.74 200.661 158.276 202.048 158.471C203.74 158.715 203.302 156.974 202.742 155.659Z" fill="url(#paint43_linear_975_2570)"/>
<path d="M171.971 123.293C172.202 123.452 172.604 123.744 173.017 124.097C174.101 125.034 175.269 126.397 173.65 126.933C172.324 127.383 162.488 124.997 165.945 122.6C167.978 121.188 170.145 122.015 171.971 123.293Z" fill="url(#paint44_linear_975_2570)"/>
<path d="M216.947 139.032C216.74 138.533 216.509 138.083 216.375 137.839C215.304 135.879 213.746 134.163 211.299 134.516C207.136 135.113 214.866 141.649 216.253 141.844C217.945 142.087 217.507 140.347 216.947 139.032Z" fill="url(#paint45_linear_975_2570)"/>
<path d="M144.717 110.415C144.851 110.659 145.082 111.109 145.289 111.608C145.849 112.923 146.287 114.663 144.595 114.42C143.208 114.225 135.478 107.688 139.641 107.092C142.088 106.739 143.646 108.455 144.717 110.415Z" fill="url(#paint46_linear_975_2570)"/>
<path d="M164.655 154.247C164.229 153.978 163.813 153.771 163.56 153.645L163.499 153.614C161.49 152.641 159.226 152.154 157.437 153.858C154.394 156.755 164.485 157.595 165.726 156.95C167.236 156.158 165.872 155.002 164.655 154.247Z" fill="url(#paint47_linear_975_2570)"/>
<path d="M212.723 89.9535C212.857 90.197 213.089 90.6473 213.295 91.1464C213.855 92.461 214.294 94.2016 212.602 93.9582C211.214 93.7634 203.485 87.2269 207.647 86.6305C210.094 86.2775 211.652 87.9938 212.723 89.9535Z" fill="url(#paint48_linear_975_2570)"/>
<path d="M259.075 140.614C258.735 141.04 258.455 141.454 258.308 141.686C257.103 143.56 256.361 145.751 257.846 147.735C260.378 151.095 262.374 141.174 261.875 139.86C261.266 138.265 259.952 139.495 259.075 140.602V140.614Z" fill="url(#paint49_linear_975_2570)"/>
<path d="M277.784 167.247C277.93 167.016 278.21 166.602 278.551 166.176V166.164C279.427 165.056 280.742 163.827 281.351 165.422C281.85 166.736 279.853 176.656 277.322 173.297C275.837 171.313 276.579 169.122 277.784 167.247Z" fill="url(#paint50_linear_975_2570)"/>
<path d="M305.671 99.6061C305.147 99.7522 304.673 99.9104 304.417 100.008C302.336 100.799 300.425 102.114 300.437 104.585C300.461 108.784 307.983 102.016 308.373 100.677C308.836 99.034 307.058 99.2288 305.683 99.6061H305.671Z" fill="url(#paint51_linear_975_2570)"/>
<path d="M257.736 85.3159C257.919 85.1089 258.26 84.7438 258.661 84.3664V84.3543C259.708 83.3927 261.193 82.3824 261.546 84.05C261.838 85.4254 258.345 94.9198 256.361 91.2194C255.18 89.0406 256.264 86.9835 257.736 85.3159Z" fill="url(#paint52_linear_975_2570)"/>
<path d="M174.734 170.242C175.135 170.619 175.513 170.936 175.732 171.106C177.497 172.469 179.603 173.419 181.721 172.116C185.287 169.901 175.598 167.016 174.247 167.393C172.604 167.856 173.699 169.268 174.734 170.254V170.242Z" fill="url(#paint53_linear_975_2570)"/>
<path d="M325.778 100.113C326.053 100.107 326.421 100.1 326.814 100.117V100.105C328.238 100.166 330.003 100.519 329.066 101.943C328.299 103.112 319.085 107.311 320.326 103.294C321.057 100.921 323.272 100.251 325.499 100.117C325.575 100.117 325.669 100.115 325.778 100.113Z" fill="url(#paint54_linear_975_2570)"/>
</g>
<defs>
<linearGradient id="paint0_linear_975_2570" x1="258.96" y1="43.6113" x2="258.96" y2="215.389" gradientUnits="userSpaceOnUse">
<stop offset="0.213536" stop-color="#B2D5EC"/>
<stop offset="0.843756" stop-color="#486878"/>
</linearGradient>
<linearGradient id="paint1_linear_975_2570" x1="258.96" y1="43.6113" x2="258.96" y2="215.389" gradientUnits="userSpaceOnUse">
<stop offset="0.213536" stop-color="#B2D5EC"/>
<stop offset="0.843756" stop-color="#486878"/>
</linearGradient>
<linearGradient id="paint2_linear_975_2570" x1="258.96" y1="43.6113" x2="258.96" y2="215.389" gradientUnits="userSpaceOnUse">
<stop offset="0.213536" stop-color="#B2D5EC"/>
<stop offset="0.843756" stop-color="#486878"/>
</linearGradient>
<linearGradient id="paint3_linear_975_2570" x1="258.96" y1="43.6113" x2="258.96" y2="215.389" gradientUnits="userSpaceOnUse">
<stop offset="0.213536" stop-color="#B2D5EC"/>
<stop offset="0.843756" stop-color="#486878"/>
</linearGradient>
<linearGradient id="paint4_linear_975_2570" x1="258.96" y1="43.6113" x2="258.96" y2="215.389" gradientUnits="userSpaceOnUse">
<stop offset="0.213536" stop-color="#B2D5EC"/>
<stop offset="0.843756" stop-color="#486878"/>
</linearGradient>
<linearGradient id="paint5_linear_975_2570" x1="258.96" y1="43.6113" x2="258.96" y2="215.389" gradientUnits="userSpaceOnUse">
<stop offset="0.213536" stop-color="#B2D5EC"/>
<stop offset="0.843756" stop-color="#486878"/>
</linearGradient>
<linearGradient id="paint6_linear_975_2570" x1="258.96" y1="43.6113" x2="258.96" y2="215.389" gradientUnits="userSpaceOnUse">
<stop offset="0.213536" stop-color="#B2D5EC"/>
<stop offset="0.843756" stop-color="#486878"/>
</linearGradient>
<linearGradient id="paint7_linear_975_2570" x1="258.96" y1="43.6113" x2="258.96" y2="215.389" gradientUnits="userSpaceOnUse">
<stop offset="0.213536" stop-color="#B2D5EC"/>
<stop offset="0.843756" stop-color="#486878"/>
</linearGradient>
<linearGradient id="paint8_linear_975_2570" x1="258.96" y1="43.6113" x2="258.96" y2="215.389" gradientUnits="userSpaceOnUse">
<stop offset="0.213536" stop-color="#B2D5EC"/>
<stop offset="0.843756" stop-color="#486878"/>
</linearGradient>
<linearGradient id="paint9_linear_975_2570" x1="258.96" y1="43.6113" x2="258.96" y2="215.389" gradientUnits="userSpaceOnUse">
<stop offset="0.213536" stop-color="#B2D5EC"/>
<stop offset="0.843756" stop-color="#486878"/>
</linearGradient>
<linearGradient id="paint10_linear_975_2570" x1="258.96" y1="43.6113" x2="258.96" y2="215.389" gradientUnits="userSpaceOnUse">
<stop offset="0.213536" stop-color="#B2D5EC"/>
<stop offset="0.843756" stop-color="#486878"/>
</linearGradient>
<linearGradient id="paint11_linear_975_2570" x1="258.96" y1="43.6113" x2="258.96" y2="215.389" gradientUnits="userSpaceOnUse">
<stop offset="0.213536" stop-color="#B2D5EC"/>
<stop offset="0.843756" stop-color="#486878"/>
</linearGradient>
<linearGradient id="paint12_linear_975_2570" x1="258.96" y1="43.6113" x2="258.96" y2="215.389" gradientUnits="userSpaceOnUse">
<stop offset="0.213536" stop-color="#B2D5EC"/>
<stop offset="0.843756" stop-color="#486878"/>
</linearGradient>
<linearGradient id="paint13_linear_975_2570" x1="258.96" y1="43.6113" x2="258.96" y2="215.389" gradientUnits="userSpaceOnUse">
<stop offset="0.213536" stop-color="#B2D5EC"/>
<stop offset="0.843756" stop-color="#486878"/>
</linearGradient>
<linearGradient id="paint14_linear_975_2570" x1="258.96" y1="43.6113" x2="258.96" y2="215.389" gradientUnits="userSpaceOnUse">
<stop offset="0.213536" stop-color="#B2D5EC"/>
<stop offset="0.843756" stop-color="#486878"/>
</linearGradient>
<linearGradient id="paint15_linear_975_2570" x1="258.96" y1="43.6113" x2="258.96" y2="215.389" gradientUnits="userSpaceOnUse">
<stop offset="0.213536" stop-color="#B2D5EC"/>
<stop offset="0.843756" stop-color="#486878"/>
</linearGradient>
<linearGradient id="paint16_linear_975_2570" x1="258.96" y1="43.6113" x2="258.96" y2="215.389" gradientUnits="userSpaceOnUse">
<stop offset="0.213536" stop-color="#B2D5EC"/>
<stop offset="0.843756" stop-color="#486878"/>
</linearGradient>
<linearGradient id="paint17_linear_975_2570" x1="258.96" y1="43.6113" x2="258.96" y2="215.389" gradientUnits="userSpaceOnUse">
<stop offset="0.213536" stop-color="#B2D5EC"/>
<stop offset="0.843756" stop-color="#486878"/>
</linearGradient>
<linearGradient id="paint18_linear_975_2570" x1="258.96" y1="43.6113" x2="258.96" y2="215.389" gradientUnits="userSpaceOnUse">
<stop offset="0.213536" stop-color="#B2D5EC"/>
<stop offset="0.843756" stop-color="#486878"/>
</linearGradient>
<linearGradient id="paint19_linear_975_2570" x1="258.96" y1="43.6113" x2="258.96" y2="215.389" gradientUnits="userSpaceOnUse">
<stop offset="0.213536" stop-color="#B2D5EC"/>
<stop offset="0.843756" stop-color="#486878"/>
</linearGradient>
<linearGradient id="paint20_linear_975_2570" x1="258.96" y1="43.6113" x2="258.96" y2="215.389" gradientUnits="userSpaceOnUse">
<stop offset="0.213536" stop-color="#B2D5EC"/>
<stop offset="0.843756" stop-color="#486878"/>
</linearGradient>
<linearGradient id="paint21_linear_975_2570" x1="258.96" y1="43.6113" x2="258.96" y2="215.389" gradientUnits="userSpaceOnUse">
<stop offset="0.213536" stop-color="#B2D5EC"/>
<stop offset="0.843756" stop-color="#486878"/>
</linearGradient>
<linearGradient id="paint22_linear_975_2570" x1="258.96" y1="43.6113" x2="258.96" y2="215.389" gradientUnits="userSpaceOnUse">
<stop offset="0.213536" stop-color="#B2D5EC"/>
<stop offset="0.843756" stop-color="#486878"/>
</linearGradient>
<linearGradient id="paint23_linear_975_2570" x1="258.96" y1="43.6113" x2="258.96" y2="215.389" gradientUnits="userSpaceOnUse">
<stop offset="0.213536" stop-color="#B2D5EC"/>
<stop offset="0.843756" stop-color="#486878"/>
</linearGradient>
<linearGradient id="paint24_linear_975_2570" x1="258.96" y1="43.6113" x2="258.96" y2="215.389" gradientUnits="userSpaceOnUse">
<stop offset="0.213536" stop-color="#B2D5EC"/>
<stop offset="0.843756" stop-color="#486878"/>
</linearGradient>
<linearGradient id="paint25_linear_975_2570" x1="258.96" y1="43.6113" x2="258.96" y2="215.389" gradientUnits="userSpaceOnUse">
<stop offset="0.213536" stop-color="#B2D5EC"/>
<stop offset="0.843756" stop-color="#486878"/>
</linearGradient>
<linearGradient id="paint26_linear_975_2570" x1="258.96" y1="43.6113" x2="258.96" y2="215.389" gradientUnits="userSpaceOnUse">
<stop offset="0.213536" stop-color="#B2D5EC"/>
<stop offset="0.843756" stop-color="#486878"/>
</linearGradient>
<linearGradient id="paint27_linear_975_2570" x1="258.96" y1="43.6113" x2="258.96" y2="215.389" gradientUnits="userSpaceOnUse">
<stop offset="0.213536" stop-color="#B2D5EC"/>
<stop offset="0.843756" stop-color="#486878"/>
</linearGradient>
<linearGradient id="paint28_linear_975_2570" x1="258.96" y1="43.6113" x2="258.96" y2="215.389" gradientUnits="userSpaceOnUse">
<stop offset="0.213536" stop-color="#B2D5EC"/>
<stop offset="0.843756" stop-color="#486878"/>
</linearGradient>
<linearGradient id="paint29_linear_975_2570" x1="258.96" y1="43.6113" x2="258.96" y2="215.389" gradientUnits="userSpaceOnUse">
<stop offset="0.213536" stop-color="#B2D5EC"/>
<stop offset="0.843756" stop-color="#486878"/>
</linearGradient>
<linearGradient id="paint30_linear_975_2570" x1="258.96" y1="43.6113" x2="258.96" y2="215.389" gradientUnits="userSpaceOnUse">
<stop offset="0.213536" stop-color="#B2D5EC"/>
<stop offset="0.843756" stop-color="#486878"/>
</linearGradient>
<linearGradient id="paint31_linear_975_2570" x1="258.96" y1="43.6113" x2="258.96" y2="215.389" gradientUnits="userSpaceOnUse">
<stop offset="0.213536" stop-color="#B2D5EC"/>
<stop offset="0.843756" stop-color="#486878"/>
</linearGradient>
<linearGradient id="paint32_linear_975_2570" x1="258.96" y1="43.6113" x2="258.96" y2="215.389" gradientUnits="userSpaceOnUse">
<stop offset="0.213536" stop-color="#B2D5EC"/>
<stop offset="0.843756" stop-color="#486878"/>
</linearGradient>
<linearGradient id="paint33_linear_975_2570" x1="258.96" y1="43.6113" x2="258.96" y2="215.389" gradientUnits="userSpaceOnUse">
<stop offset="0.213536" stop-color="#B2D5EC"/>
<stop offset="0.843756" stop-color="#486878"/>
</linearGradient>
<linearGradient id="paint34_linear_975_2570" x1="258.96" y1="43.6113" x2="258.96" y2="215.389" gradientUnits="userSpaceOnUse">
<stop offset="0.213536" stop-color="#B2D5EC"/>
<stop offset="0.843756" stop-color="#486878"/>
</linearGradient>
<linearGradient id="paint35_linear_975_2570" x1="258.96" y1="43.6113" x2="258.96" y2="215.389" gradientUnits="userSpaceOnUse">
<stop offset="0.213536" stop-color="#B2D5EC"/>
<stop offset="0.843756" stop-color="#486878"/>
</linearGradient>
<linearGradient id="paint36_linear_975_2570" x1="258.96" y1="43.6113" x2="258.96" y2="215.389" gradientUnits="userSpaceOnUse">
<stop offset="0.213536" stop-color="#B2D5EC"/>
<stop offset="0.843756" stop-color="#486878"/>
</linearGradient>
<linearGradient id="paint37_linear_975_2570" x1="258.96" y1="43.6113" x2="258.96" y2="215.389" gradientUnits="userSpaceOnUse">
<stop offset="0.213536" stop-color="#B2D5EC"/>
<stop offset="0.843756" stop-color="#486878"/>
</linearGradient>
<linearGradient id="paint38_linear_975_2570" x1="258.96" y1="43.6113" x2="258.96" y2="215.389" gradientUnits="userSpaceOnUse">
<stop offset="0.213536" stop-color="#B2D5EC"/>
<stop offset="0.843756" stop-color="#486878"/>
</linearGradient>
<linearGradient id="paint39_linear_975_2570" x1="258.96" y1="43.6113" x2="258.96" y2="215.389" gradientUnits="userSpaceOnUse">
<stop offset="0.213536" stop-color="#B2D5EC"/>
<stop offset="0.843756" stop-color="#486878"/>
</linearGradient>
<linearGradient id="paint40_linear_975_2570" x1="258.96" y1="43.6113" x2="258.96" y2="215.389" gradientUnits="userSpaceOnUse">
<stop offset="0.213536" stop-color="#B2D5EC"/>
<stop offset="0.843756" stop-color="#486878"/>
</linearGradient>
<linearGradient id="paint41_linear_975_2570" x1="258.96" y1="43.6113" x2="258.96" y2="215.389" gradientUnits="userSpaceOnUse">
<stop offset="0.213536" stop-color="#B2D5EC"/>
<stop offset="0.843756" stop-color="#486878"/>
</linearGradient>
<linearGradient id="paint42_linear_975_2570" x1="258.96" y1="43.6113" x2="258.96" y2="215.389" gradientUnits="userSpaceOnUse">
<stop offset="0.213536" stop-color="#B2D5EC"/>
<stop offset="0.843756" stop-color="#486878"/>
</linearGradient>
<linearGradient id="paint43_linear_975_2570" x1="258.96" y1="43.6113" x2="258.96" y2="215.389" gradientUnits="userSpaceOnUse">
<stop offset="0.213536" stop-color="#B2D5EC"/>
<stop offset="0.843756" stop-color="#486878"/>
</linearGradient>
<linearGradient id="paint44_linear_975_2570" x1="258.96" y1="43.6113" x2="258.96" y2="215.389" gradientUnits="userSpaceOnUse">
<stop offset="0.213536" stop-color="#B2D5EC"/>
<stop offset="0.843756" stop-color="#486878"/>
</linearGradient>
<linearGradient id="paint45_linear_975_2570" x1="258.96" y1="43.6113" x2="258.96" y2="215.389" gradientUnits="userSpaceOnUse">
<stop offset="0.213536" stop-color="#B2D5EC"/>
<stop offset="0.843756" stop-color="#486878"/>
</linearGradient>
<linearGradient id="paint46_linear_975_2570" x1="258.96" y1="43.6113" x2="258.96" y2="215.389" gradientUnits="userSpaceOnUse">
<stop offset="0.213536" stop-color="#B2D5EC"/>
<stop offset="0.843756" stop-color="#486878"/>
</linearGradient>
<linearGradient id="paint47_linear_975_2570" x1="258.96" y1="43.6113" x2="258.96" y2="215.389" gradientUnits="userSpaceOnUse">
<stop offset="0.213536" stop-color="#B2D5EC"/>
<stop offset="0.843756" stop-color="#486878"/>
</linearGradient>
<linearGradient id="paint48_linear_975_2570" x1="258.96" y1="43.6113" x2="258.96" y2="215.389" gradientUnits="userSpaceOnUse">
<stop offset="0.213536" stop-color="#B2D5EC"/>
<stop offset="0.843756" stop-color="#486878"/>
</linearGradient>
<linearGradient id="paint49_linear_975_2570" x1="258.96" y1="43.6113" x2="258.96" y2="215.389" gradientUnits="userSpaceOnUse">
<stop offset="0.213536" stop-color="#B2D5EC"/>
<stop offset="0.843756" stop-color="#486878"/>
</linearGradient>
<linearGradient id="paint50_linear_975_2570" x1="258.96" y1="43.6113" x2="258.96" y2="215.389" gradientUnits="userSpaceOnUse">
<stop offset="0.213536" stop-color="#B2D5EC"/>
<stop offset="0.843756" stop-color="#486878"/>
</linearGradient>
<linearGradient id="paint51_linear_975_2570" x1="258.96" y1="43.6113" x2="258.96" y2="215.389" gradientUnits="userSpaceOnUse">
<stop offset="0.213536" stop-color="#B2D5EC"/>
<stop offset="0.843756" stop-color="#486878"/>
</linearGradient>
<linearGradient id="paint52_linear_975_2570" x1="258.96" y1="43.6113" x2="258.96" y2="215.389" gradientUnits="userSpaceOnUse">
<stop offset="0.213536" stop-color="#B2D5EC"/>
<stop offset="0.843756" stop-color="#486878"/>
</linearGradient>
<linearGradient id="paint53_linear_975_2570" x1="258.96" y1="43.6113" x2="258.96" y2="215.389" gradientUnits="userSpaceOnUse">
<stop offset="0.213536" stop-color="#B2D5EC"/>
<stop offset="0.843756" stop-color="#486878"/>
</linearGradient>
<linearGradient id="paint54_linear_975_2570" x1="258.96" y1="43.6113" x2="258.96" y2="215.389" gradientUnits="userSpaceOnUse">
<stop offset="0.213536" stop-color="#B2D5EC"/>
<stop offset="0.843756" stop-color="#486878"/>
</linearGradient>
<clipPath id="clip0_975_2570">
<rect width="500" height="495.873" fill="white"/>
</clipPath>
</defs>
</svg>
