<svg width="510" height="397" viewBox="0 0 510 397" fill="none" xmlns="http://www.w3.org/2000/svg">
<rect width="510" height="397" rx="25" fill="#EDF6FC"/>
<g clip-path="url(#clip0_1002_9764)">
<path d="M170.236 60.8277C170.236 60.8277 111.887 72.649 75.5095 142.106C39.1316 211.563 73.7107 273.141 116.95 286.956C160.19 300.772 183.453 285.83 220.371 294.979C257.284 304.134 304.357 352.184 360.849 332.311C417.34 312.438 432.897 220.953 420.702 147.129C408.519 73.3042 278.697 16.4099 170.236 60.8277Z" fill="white"/>
<path d="M97.9041 161.558C97.9041 161.558 65.0046 211.175 88.3951 286.012C111.786 360.848 179.779 379.939 220.123 359.133C260.467 338.327 266.351 341.312 298.926 321.676C331.5 302.049 398.762 362.74 424.655 308.742C450.549 254.744 396.86 89.0536 336.035 45.4749C275.218 1.88794 143.19 53.4559 97.9041 161.558Z" fill="#8AC6E8"/>
<path d="M97.9041 161.558C97.9041 161.558 65.0046 211.175 88.3951 286.012C111.786 360.848 179.779 379.939 220.123 359.133C260.467 338.327 266.351 341.312 298.926 321.676C331.5 302.049 398.762 362.74 424.655 308.742C450.549 254.744 396.86 89.0536 336.035 45.4749C275.218 1.88794 143.19 53.4559 97.9041 161.558Z" fill="white" fill-opacity="0.65"/>
<path d="M205.097 76.334H98.2061V215.027H205.097V76.334Z" stroke="#2D3F45" stroke-width="0.798264" stroke-miterlimit="10"/>
<path d="M202.058 80.2676H101.238V211.093H202.058V80.2676Z" stroke="#2D3F45" stroke-width="0.798264" stroke-miterlimit="10"/>
<path d="M176.781 113.069H126.514V178.291H176.781V113.069Z" stroke="#2D3F45" stroke-width="0.798264" stroke-miterlimit="10"/>
<path d="M308.89 127.642L311.125 111.769C315.497 109.071 319.545 106.137 323.267 102.967C326.981 99.7976 330.07 96.3028 332.524 92.483C334.978 88.6631 336.515 84.5019 337.148 80.0075C337.644 76.5046 337.238 73.6682 335.929 71.4819C334.621 69.3038 332.467 67.9953 329.468 67.5727C326.802 67.1988 324.592 67.6458 322.836 68.9299C321.081 70.2141 320.024 72.1484 319.658 74.7247C319.496 75.8951 319.463 76.9923 319.577 78.0244C319.683 79.0566 319.821 80.1863 319.992 81.3973L304.013 82.5839C303.664 80.8365 303.461 79.1298 303.396 77.4636C303.331 75.7975 303.42 74.1314 303.656 72.4653C304.639 65.4677 307.573 60.1849 312.458 56.6252C317.334 53.0654 323.779 51.8463 331.776 52.976C339.944 54.1301 345.967 57.2266 349.843 62.2818C353.72 67.337 355.085 73.9445 353.931 82.1044C353.176 87.4359 351.55 92.2229 349.039 96.4572C346.527 100.692 343.293 104.528 339.318 107.966C335.344 111.403 330.866 114.589 325.86 117.54L324.128 129.787L308.882 127.634L308.89 127.642ZM304.598 153.552L306.939 136.931L323.69 139.296L321.349 155.917L304.598 153.552Z" stroke="#2D3F45" stroke-width="0.798264" stroke-miterlimit="10"/>
<path d="M219.39 196.229C219.39 196.229 167.213 196.928 165.596 200.634C163.97 204.348 156.55 249.333 156.087 264.864C155.623 280.404 155.388 290.604 157.013 292.457C158.639 294.31 183.915 308.923 183.915 308.923C183.915 308.923 172.089 350.429 175.795 351.819C179.51 353.209 202.234 359.003 216.838 359.239C231.443 359.475 245.821 359.475 246.983 359.475C248.145 359.475 285.474 360.865 298.461 357.849C311.449 354.834 315.391 354.607 315.391 349.503C315.391 344.399 312.148 338.141 311.912 336.978C311.676 335.816 320.722 247.935 315.618 226.365C310.514 204.795 303.793 196.449 298.689 195.059C293.585 193.669 257.183 194.596 257.183 194.596L219.382 196.221L219.39 196.229Z" fill="#A2D0ED" stroke="#2D3F45" stroke-width="0.798264" stroke-linecap="round" stroke-linejoin="round"/>
<path d="M247.178 214.889C245.463 215.888 243.651 216.807 241.749 217.619" stroke="#2D3F45" stroke-width="0.798264" stroke-linecap="round" stroke-linejoin="round"/>
<path d="M266.513 197.358C266.513 197.358 260.182 206.485 249.633 213.377" stroke="#2D3F45" stroke-width="0.798264" stroke-linecap="round" stroke-linejoin="round"/>
<path d="M263.416 206.648C263.416 206.648 258.629 213.402 254.411 215.654" stroke="#2D3F45" stroke-width="0.798264" stroke-linecap="round" stroke-linejoin="round"/>
<path d="M230.265 280.941L228.899 276.698" stroke="#2D3F45" stroke-width="0.798264" stroke-linecap="round" stroke-linejoin="round"/>
<path d="M237.71 304.062L231.671 285.288" stroke="#2D3F45" stroke-width="0.798264" stroke-linecap="round" stroke-linejoin="round"/>
<path d="M239.571 304.526L245.594 295.017" stroke="#2D3F45" stroke-width="0.798264" stroke-linecap="round" stroke-linejoin="round"/>
<path d="M253.249 298.958L267.854 282.492" stroke="#2D3F45" stroke-width="0.798264" stroke-linecap="round" stroke-linejoin="round"/>
<path d="M215.546 350.315L246.991 359.483" stroke="#2D3F45" stroke-width="0.798264" stroke-linecap="round" stroke-linejoin="round"/>
<path d="M206.411 347.657L211.808 349.226" stroke="#2D3F45" stroke-width="0.798264" stroke-linecap="round" stroke-linejoin="round"/>
<path d="M219.066 93.1014C219.066 93.1014 202.681 89.3385 199.585 93.5403C196.488 97.7503 202.681 101.733 201.796 102.619C200.91 103.504 181.867 113.249 183.42 122.766C184.972 132.283 197.813 142.028 198.252 144.686C198.691 147.343 183.42 148.229 181.428 152.212C179.437 156.194 176.56 175.017 193.164 181.218C209.769 187.419 230.583 177.008 236.337 177.008C242.091 177.008 247.853 188.297 254.493 187.639C261.133 186.972 264.896 182.104 264.896 182.104C264.896 182.104 271.764 191.621 281.72 187.639C291.684 183.656 303.2 169.702 298.324 165.5C293.456 161.29 287.921 159.965 291.456 156.202C295 152.439 302.306 142.475 301.201 133.836C300.096 125.204 289.912 124.538 285.922 121.88C281.939 119.223 290.351 114.793 290.132 107.487C289.912 100.18 284.597 88.0056 257.582 79.8133C230.566 71.6209 217.286 75.6033 215.953 82.4709C214.629 89.3385 219.05 93.1014 219.05 93.1014H219.066Z" fill="#2D3F45" stroke="#2D3F45" stroke-width="0.798264" stroke-linecap="round" stroke-linejoin="round"/>
<path d="M222.016 164.143C222.016 164.143 216.481 198.684 216.261 199.789C216.042 200.894 226.006 210.859 239.514 209.087C253.021 207.315 259.881 198.237 259.881 198.237L255.671 163.915C255.671 163.915 244.154 169.45 237.075 169.23C229.988 169.011 222.016 164.134 222.016 164.134V164.143Z" fill="#FFDCCC" stroke="#2D3F45" stroke-width="0.798264" stroke-linecap="round" stroke-linejoin="round"/>
<path d="M219.74 182.673L243.058 178.162L222.016 164.143L219.74 182.673Z" fill="#2D3F45" stroke="#2D3F45" stroke-width="0.798264" stroke-linecap="round" stroke-linejoin="round"/>
<path d="M209.711 133.689C209.711 133.689 205.81 128.748 203.989 134.99C202.169 141.231 209.971 148.774 209.971 148.774L209.711 133.689Z" fill="#FFDCCC" stroke="#2D3F45" stroke-width="0.798264" stroke-linecap="round" stroke-linejoin="round"/>
<path d="M265.603 133.689C265.603 133.689 269.504 128.748 271.324 134.99C273.145 141.231 265.343 148.774 265.343 148.774L265.603 133.689Z" fill="#FFDCCC" stroke="#2D3F45" stroke-width="0.798264" stroke-linecap="round" stroke-linejoin="round"/>
<path d="M221.966 102.464C221.966 102.464 210.799 113.306 209.182 116.541C207.565 119.775 208.215 156.836 209.995 160.396C211.775 163.955 229.574 177.869 232.491 179.007C235.401 180.137 242.041 181.275 247.218 178.682C252.395 176.09 264.854 162.826 266.155 159.429C267.447 156.031 265.83 117.191 265.025 113.468C264.212 109.746 244.634 96.4742 236.384 95.8321C228.135 95.1819 221.983 102.464 221.983 102.464H221.966Z" fill="#FFDCCC" stroke="#2D3F45" stroke-width="0.798264" stroke-linecap="round" stroke-linejoin="round"/>
<path d="M230.744 95.8323C230.744 95.8323 247.47 111.087 259.499 111.681L271.527 112.266C271.527 112.266 245.121 108.747 236.905 90.8421C236.905 90.8421 227.81 83.2106 230.744 95.8323Z" fill="#2D3F45" stroke="#2D3F45" stroke-width="0.798264" stroke-linecap="round" stroke-linejoin="round"/>
<path d="M240.091 126.091L241.383 142.435" stroke="#2D3F45" stroke-width="0.798264" stroke-linecap="round" stroke-linejoin="round"/>
<path d="M242.676 145.832C242.676 145.832 239.766 150.205 237.661 150.205C235.556 150.205 233.451 147.774 233.451 147.774" stroke="#2D3F45" stroke-width="0.798264" stroke-linecap="round" stroke-linejoin="round"/>
<path d="M225.039 151.171C225.039 151.171 228.761 157.323 233.613 157.64C238.465 157.965 243.643 156.511 243.643 156.511" stroke="#2D3F45" stroke-width="0.798264" stroke-linecap="round" stroke-linejoin="round"/>
<path d="M242.033 123.498C242.033 123.498 247.697 119.288 249.965 117.833C252.232 116.378 259.515 119.125 259.515 119.125C259.515 119.125 254.012 116.053 251.103 115.565C248.193 115.078 242.203 119.288 241.716 121.23C241.228 123.173 239.773 122.685 242.041 123.498H242.033Z" fill="#2D3F45" stroke="#2D3F45" stroke-width="0.798264" stroke-linecap="round" stroke-linejoin="round"/>
<path d="M230.378 124.278C230.378 124.278 229.565 122.01 226.818 121.848C224.071 121.685 211.929 124.92 214.034 124.92C216.139 124.92 224.876 124.757 227.143 124.757C229.411 124.757 230.378 124.27 230.378 124.27V124.278Z" fill="#2D3F45" stroke="#2D3F45" stroke-width="0.798264" stroke-linecap="round" stroke-linejoin="round"/>
<path d="M258.215 133.535C258.215 133.535 254.005 134.502 250.77 134.348C247.536 134.185 244.618 133.218 245.918 134.673C247.211 136.128 249.803 137.42 253.851 136.615C257.898 135.803 259.353 134.998 258.223 133.543L258.215 133.535Z" fill="#2D3F45"/>
<path d="M228.924 133.535C228.924 133.535 224.714 134.502 221.479 134.348C218.245 134.185 215.327 133.218 216.627 134.673C217.92 136.128 220.512 137.42 224.56 136.615C228.607 135.803 230.062 134.998 228.932 133.543L228.924 133.535Z" fill="#2D3F45"/>
<path d="M175.072 226.795C175.072 226.795 179.941 200.008 182.159 197.35C184.378 194.692 208.508 174.984 209.833 173.659C211.158 172.334 220.683 157.941 221.122 159.712C221.561 161.484 220.016 169.229 217.139 173.439C214.262 177.649 210.272 182.737 210.272 182.737C210.272 182.737 225.104 186.5 225.99 187.386C226.876 188.272 231.915 199.301 232.191 200.674C232.663 203.047 231.98 205.591 229.981 205.77C228.16 205.933 216.253 199.788 216.253 199.788L206.736 201.113C206.736 201.113 199.869 209.525 195.22 211.077C190.571 212.629 188.799 212.849 188.799 212.849L189.019 229.234L175.072 226.795Z" fill="#FFDCCC" stroke="#2D3F45" stroke-width="0.798264" stroke-linecap="round" stroke-linejoin="round"/>
<path d="M210.995 187.792C210.995 187.792 223.926 189.523 224.714 190.157C225.502 190.791 232.199 200.674 232.199 200.674" stroke="#2D3F45" stroke-width="0.798264" stroke-linecap="round" stroke-linejoin="round"/>
<path d="M211.881 193.685C211.881 193.685 224.714 196.627 225.657 197.415C226.599 198.203 231.647 204.039 231.647 204.039" stroke="#2D3F45" stroke-width="0.798264" stroke-linecap="round" stroke-linejoin="round"/>
<path d="M231.915 306.607C231.915 306.607 214.522 303.364 213.832 303.128C213.133 302.893 200.844 299.186 199.227 298.488C197.601 297.789 177.892 294.31 176.966 295.708C176.039 297.098 175.113 305.217 174.877 305.908C174.642 306.607 172.789 309.85 173.252 311.703C173.715 313.556 173.252 316.807 173.252 316.807C173.252 316.807 173.016 327.705 175.804 327.941C178.583 328.177 181.135 317.741 181.135 317.741C181.135 317.741 185.077 320.057 193.196 320.521C201.315 320.984 209.199 317.042 209.199 317.042L230.761 322.146L231.923 306.607H231.915Z" fill="#FFDCCC" stroke="#2D3F45" stroke-width="0.798264" stroke-linecap="round" stroke-linejoin="round"/>
<path d="M171.764 222.066L195.106 226.333L194.212 240.921C194.212 240.921 199.372 243.392 200.949 257.753C202.518 272.122 207.012 305.485 205.891 307.955C204.769 310.426 197.812 321.203 181.647 321.869C165.481 322.544 156.728 307.728 155.16 303.014C153.591 298.3 161.897 267.4 162.344 264.71C162.791 262.02 165.034 243.611 167.058 240.466C169.082 237.321 171.544 235.305 171.544 235.305L171.772 222.058L171.764 222.066Z" fill="#A2D0ED" stroke="#2D3F45" stroke-width="0.798264" stroke-linecap="round" stroke-linejoin="round"/>
<path d="M186.271 238.882C187.596 239.036 188.913 239.126 190.173 239.126" stroke="#2D3F45" stroke-width="0.798264" stroke-linecap="round" stroke-linejoin="round"/>
<path d="M171.537 235.312C171.537 235.312 175.706 236.824 180.81 237.938" stroke="#2D3F45" stroke-width="0.798264" stroke-linecap="round" stroke-linejoin="round"/>
<path d="M300.087 229.389L297.771 289.214C297.771 289.214 295.219 289.45 294.292 290.604C293.366 291.766 292.667 293.156 292.667 293.156C292.667 293.156 269.244 294.082 258.118 297.333C246.983 300.576 239.563 304.518 239.563 304.518L229.363 304.282L227.274 331.184L240.953 331.647C240.953 331.647 247.674 335.589 278.29 338.368C308.897 341.148 323.047 341.847 326.29 338.132C329.533 334.418 330.93 328.623 331.394 325.608C331.857 322.593 337.424 304.046 337.424 277.145C337.424 250.243 312.148 211.289 306.581 202.479C301.014 193.669 295.219 194.36 291.277 195.294" fill="#A2D0ED"/>
<path d="M300.087 229.389L297.771 289.214C297.771 289.214 295.219 289.45 294.292 290.604C293.366 291.766 292.667 293.156 292.667 293.156C292.667 293.156 269.244 294.082 258.118 297.333C246.983 300.576 239.563 304.518 239.563 304.518L229.363 304.282L227.274 331.184L240.953 331.647C240.953 331.647 247.674 335.589 278.29 338.368C308.897 341.148 323.047 341.847 326.29 338.132C329.533 334.418 330.93 328.623 331.394 325.608C331.857 322.593 337.424 304.046 337.424 277.145C337.424 250.243 312.148 211.289 306.581 202.479C301.014 193.669 295.219 194.36 291.277 195.294" stroke="#2D3F45" stroke-width="0.798264" stroke-linecap="round" stroke-linejoin="round"/>
<path d="M312.001 285.093L297.771 289.221L311.221 276.697" stroke="#2D3F45" stroke-width="0.798264" stroke-linecap="round" stroke-linejoin="round"/>
<path d="M320.959 282.493L316.456 283.802" stroke="#2D3F45" stroke-width="0.798264" stroke-linecap="round" stroke-linejoin="round"/>
<path d="M292.667 293.164C292.667 293.164 307.508 294.326 313.538 296.643" stroke="#2D3F45" stroke-width="0.798264" stroke-linecap="round" stroke-linejoin="round"/>
<path d="M315.699 306.371C316.398 307.094 317.073 307.875 317.715 308.696" stroke="#2D3F45" stroke-width="0.798264" stroke-linecap="round" stroke-linejoin="round"/>
<path d="M298.697 296.406C298.697 296.406 306.101 298.186 312.863 303.745" stroke="#2D3F45" stroke-width="0.798264" stroke-linecap="round" stroke-linejoin="round"/>
<path d="M239.335 307.078L239.571 329.566" stroke="#2D3F45" stroke-width="0.798264" stroke-linecap="round" stroke-linejoin="round"/>
<path d="M228.2 323.999H237.945" stroke="#2D3F45" stroke-width="0.798264" stroke-linecap="round" stroke-linejoin="round"/>
<path d="M230.525 310.783L234.467 310.556" stroke="#2D3F45" stroke-width="0.798264" stroke-linecap="round" stroke-linejoin="round"/>
</g>
<defs>
<clipPath id="clip0_1002_9764">
<rect width="397" height="337" fill="white" transform="translate(57 30)"/>
</clipPath>
</defs>
</svg>
