<svg width="20" height="20" viewBox="0 0 20 20" fill="none" xmlns="http://www.w3.org/2000/svg">
<g clip-path="url(#clip0_1014_1922)">
<path d="M10.4219 9.59701C10.4186 9.59358 10.4176 9.58901 10.4143 9.58565L7.07038 6.2417V4.14057C7.07038 3.98491 7.00859 3.83615 6.89874 3.72627L3.38312 0.171624C3.21605 0.00459241 2.9637 -0.0463451 2.74452 0.0446315C2.52538 0.135022 2.38288 0.349046 2.38288 0.585921V2.34373H0.586009C0.349173 2.34369 0.135149 2.48616 0.0447588 2.70533C-0.0462178 2.92448 0.00413379 3.17627 0.17179 3.34393L3.72648 6.89858C3.83636 7.00846 3.98511 7.07026 4.14074 7.07026H6.24187L9.58577 10.4142C9.58913 10.4175 9.5937 10.4185 9.59714 10.4217C9.82527 10.6395 10.1718 10.6424 10.403 10.4217C10.6464 10.1894 10.6409 9.82651 10.4219 9.59701Z" fill="#8AC6E8"/>
<path d="M9.99992 0C8.50066 0 7.08312 0.381445 5.80664 0.977266L7.60406 2.77469C8.35844 2.52383 9.16246 2.38281 9.99996 2.38281C14.1999 2.38277 17.6171 5.79996 17.6171 9.99992C17.6171 14.1999 14.1999 17.6171 9.99992 17.6171C5.79992 17.6171 2.38277 14.1999 2.38277 9.99992C2.38277 9.16242 2.52383 8.3584 2.77465 7.60402L0.977227 5.8066C0.381484 7.08313 0 8.50066 0 9.99992C0 15.4925 4.50738 19.9999 9.99992 19.9999C15.4925 19.9999 19.9999 15.4925 19.9999 9.99992C19.9999 4.50738 15.4925 0 9.99992 0Z" fill="#8AC6E8"/>
<path d="M9.99996 4.72656C9.38063 4.72656 8.79469 4.85352 8.24215 5.05051V5.75652L9.59672 7.11109C9.72977 7.0925 9.86188 7.07031 9.99996 7.07031C11.6153 7.07031 12.9296 8.38465 12.9296 10C12.9296 11.6154 11.6153 12.9297 9.99996 12.9297C8.38461 12.9297 7.07027 11.6154 7.07027 10C7.07027 9.86188 7.09246 9.72977 7.11105 9.59676L5.75652 8.24215H5.05051C4.85352 8.79469 4.72656 9.38062 4.72656 9.99996C4.72656 12.9079 7.09207 15.2734 9.99996 15.2734C12.9079 15.2734 15.2734 12.9079 15.2734 9.99996C15.2734 7.09203 12.9079 4.72656 9.99996 4.72656Z" fill="#8AC6E8"/>
</g>
<defs>
<clipPath id="clip0_1014_1922">
<rect width="20" height="20" fill="white"/>
</clipPath>
</defs>
</svg>
