<svg width="31" height="30" viewBox="0 0 31 30" fill="none" xmlns="http://www.w3.org/2000/svg">
<g clip-path="url(#clip0_102_75)">
<path d="M16.9865 26.7857C24.4498 26.7857 30.5 20.7895 30.5 13.3929C30.5 5.99619 24.4498 0 16.9865 0C9.52317 0 3.47296 5.99619 3.47296 13.3929C3.47296 20.7895 9.52317 26.7857 16.9865 26.7857Z" fill="#F6A2BC"/>
<mask id="mask0_102_75" style="mask-type:luminance" maskUnits="userSpaceOnUse" x="0" y="3" width="28" height="27">
<path d="M27.527 16.6072C27.527 9.21048 21.4768 3.21429 14.0135 3.21429C6.55021 3.21429 0.5 9.21048 0.5 16.6072C0.5 24.0038 6.55021 30 14.0135 30C21.4768 30 27.527 24.0038 27.527 16.6072Z" fill="white"/>
</mask>
<g mask="url(#mask0_102_75)">
<path d="M27.527 16.6072C27.527 9.21048 21.4768 3.21429 14.0135 3.21429C6.55021 3.21429 0.5 9.21048 0.5 16.6072C0.5 24.0038 6.55021 30 14.0135 30C21.4768 30 27.527 24.0038 27.527 16.6072Z" fill="white"/>
<path d="M14.0135 30C21.4768 30 27.527 24.0038 27.527 16.6072C27.527 9.21048 21.4768 3.21429 14.0135 3.21429C6.55021 3.21429 0.5 9.21048 0.5 16.6072C0.5 24.0038 6.55021 30 14.0135 30Z" fill="#8AC6E8"/>
<path d="M16.9865 26.7857C24.4498 26.7857 30.5 20.7895 30.5 13.3929C30.5 5.99619 24.4498 0 16.9865 0C9.52317 0 3.47296 5.99619 3.47296 13.3929C3.47296 20.7895 9.52317 26.7857 16.9865 26.7857Z" fill="#7776A2"/>
</g>
<path d="M15.6351 10.7143L20.0823 17.9464H11.188L15.6351 10.7143Z" fill="#D9D9D9"/>
</g>
<defs>
<clipPath id="clip0_102_75">
<rect width="30" height="30" fill="white" transform="translate(0.5)"/>
</clipPath>
</defs>
</svg>
